<svg width="35" height="35" viewBox="0 0 35 35" fill="none" xmlns="http://www.w3.org/2000/svg">
<path d="M0 16.625C0 25.3097 7.8505 32.375 17.5 32.375C19.9867 32.375 22.3877 31.9142 24.6417 31.0047C28.6119 33.2961 34.0993 34.0859 34.3356 34.1192C34.363 34.1232 34.3898 34.125 34.4167 34.125C34.6354 34.125 34.8396 34.0019 34.9387 33.8018C35.0508 33.5772 35.0064 33.306 34.8291 33.1292C33.4874 31.7876 32.5634 28.9572 32.2187 25.144C34.0398 22.6012 35 19.6607 35 16.625C35 7.94033 27.1495 0.875 17.5 0.875C7.8505 0.875 0 7.94033 0 16.625ZM23.3333 16.625C23.3333 15.3382 24.3798 14.2917 25.6667 14.2917C26.9535 14.2917 28 15.3382 28 16.625C28 17.9118 26.9535 18.9583 25.6667 18.9583C24.3798 18.9583 23.3333 17.9118 23.3333 16.625ZM15.1667 16.625C15.1667 15.3382 16.2132 14.2917 17.5 14.2917C18.7868 14.2917 19.8333 15.3382 19.8333 16.625C19.8333 17.9118 18.7868 18.9583 17.5 18.9583C16.2132 18.9583 15.1667 17.9118 15.1667 16.625ZM7 16.625C7 15.3382 8.0465 14.2917 9.33333 14.2917C10.6202 14.2917 11.6667 15.3382 11.6667 16.625C11.6667 17.9118 10.6202 18.9583 9.33333 18.9583C8.0465 18.9583 7 17.9118 7 16.625Z" fill="white"/>
</svg>
