<svg width="13" height="14" viewBox="0 0 13 14" fill="none" xmlns="http://www.w3.org/2000/svg">
<path d="M12.3594 2.26953H9.05078V1.64062C9.05078 0.735984 8.3148 0 7.41016 0H5.49609C4.59145 0 3.85547 0.735984 3.85547 1.64062V2.26953H0.546875C0.244836 2.26953 0 2.51437 0 2.81641C0 3.11845 0.244836 3.36328 0.546875 3.36328H1.11322L1.7797 12.0036C1.77989 12.0061 1.78011 12.0086 1.78032 12.0112C1.82998 12.5559 2.07985 13.0591 2.48388 13.428C2.88791 13.7969 3.41171 14 3.95877 14H8.94748C10.0868 14 11.0233 13.1515 11.1259 12.0262C11.1534 11.7254 10.9318 11.4594 10.631 11.432C10.3299 11.4045 10.0641 11.6261 10.0367 11.9269C9.9858 12.4852 9.51754 12.9062 8.94748 12.9062H3.95877C3.39065 12.9062 2.92313 12.4805 2.86986 11.9153L2.21022 3.36328H10.696L10.2289 9.41888C10.2057 9.72002 10.431 9.98296 10.7321 10.0062C10.7465 10.0073 10.7607 10.0078 10.7748 10.0078C11.0577 10.0078 11.2973 9.7898 11.3195 9.50299L11.793 3.36328H12.3594C12.6614 3.36328 12.9062 3.11845 12.9062 2.81641C12.9062 2.51437 12.6614 2.26953 12.3594 2.26953ZM7.95703 2.26953H4.94922V1.64062C4.94922 1.33908 5.19455 1.09375 5.49609 1.09375H7.41016C7.7117 1.09375 7.95703 1.33908 7.95703 1.64062V2.26953Z" fill="#02A09B"/>
<path d="M3.96833 4.45759C3.66659 4.47077 3.43266 4.72605 3.44584 5.02782L3.71928 11.2877C3.7321 11.5813 3.97418 11.8107 4.26523 11.8107C4.27327 11.8107 4.28139 11.8106 4.28951 11.8102C4.59125 11.797 4.82517 11.5417 4.81199 11.24L4.53855 4.98005C4.52537 4.67834 4.2696 4.44403 3.96833 4.45759Z" fill="#02A09B"/>
<path d="M8.36772 4.98004L8.09428 11.24C8.0811 11.5417 8.31503 11.797 8.61677 11.8102C8.62489 11.8105 8.63298 11.8107 8.64105 11.8107C8.93207 11.8107 9.17417 11.5813 9.18699 11.2877L9.46043 5.02781C9.47361 4.72607 9.23968 4.47076 8.93794 4.45759C8.6367 4.4441 8.3809 4.6783 8.36772 4.98004Z" fill="#02A09B"/>
<path d="M5.90625 5.00391V11.2638C5.90625 11.5658 6.15109 11.8107 6.45312 11.8107C6.75516 11.8107 7 11.5658 7 11.2638V5.00391C7 4.70187 6.75516 4.45703 6.45312 4.45703C6.15109 4.45703 5.90625 4.70187 5.90625 5.00391Z" fill="#02A09B"/>
</svg>
