<svg width="82" height="59" viewBox="0 0 82 59" fill="none" xmlns="http://www.w3.org/2000/svg">
<path fill-rule="evenodd" clip-rule="evenodd" d="M54.2337 14.5136C53.8402 14.6235 53.335 14.8272 53.1111 14.9663C52.8874 15.1054 52.4844 15.4459 52.2158 15.7229C51.9473 16 51.5698 16.572 51.3771 16.9941L51.0269 17.7614L51.0744 18.8437L51.122 19.9258L51.4407 20.5762C51.6159 20.934 51.9929 21.4602 52.2783 21.7457C52.5637 22.0312 53.1329 22.4221 53.5431 22.6145L54.2891 22.9642L55.3457 22.9623L56.4023 22.9605L57.0626 22.6588C57.4258 22.493 57.9805 22.1074 58.2954 21.8021C58.6103 21.4968 59.0211 20.9497 59.2085 20.5864L59.5492 19.9258L59.6066 18.935L59.6639 17.9441L59.3797 17.1908C59.2235 16.7765 58.8343 16.147 58.515 15.7918C58.1436 15.3785 57.6558 15.0208 57.1611 14.7987C56.7359 14.6078 56.0643 14.4206 55.6687 14.3828C55.2239 14.3401 54.6765 14.3901 54.2337 14.5136ZM46.1293 22.6384C45.8545 22.7075 45.4465 22.8586 45.2227 22.9745C44.9988 23.0902 44.5496 23.4303 44.2246 23.73C43.8995 24.0297 43.4806 24.5746 43.2936 24.9408L42.9536 25.6067L42.8962 26.5975L42.8389 27.5884L43.1375 28.3801L43.436 29.1717L44.1753 29.9113L44.9145 30.6507L45.6396 30.8976C46.0383 31.0335 46.7213 31.1446 47.1571 31.1446C47.593 31.1446 48.2598 31.0387 48.639 30.9094C49.0417 30.7721 49.6079 30.4231 50.0001 30.0704C50.3694 29.7382 50.831 29.1628 51.0257 28.7917L51.3795 28.1168L51.3815 26.8617L51.3835 25.6067L51.0781 24.9867C50.9103 24.6457 50.5332 24.1196 50.2402 23.8177C49.9473 23.5157 49.3797 23.1185 48.9791 22.935C48.5238 22.7265 47.9463 22.5847 47.4396 22.5571C46.9938 22.5328 46.4041 22.5694 46.1293 22.6384ZM62.3455 22.631C62.1276 22.687 61.8007 22.7939 61.6191 22.8685C61.4375 22.9432 61.0416 23.1851 60.7391 23.4062C60.4368 23.6272 60.0109 24.0677 59.7927 24.3849C59.5745 24.7021 59.2947 25.3103 59.1708 25.7367C59.0182 26.2613 58.9696 26.7462 59.0203 27.2372C59.0627 27.6473 59.2718 28.3217 59.5015 28.7882C59.7248 29.2422 60.1266 29.8057 60.3942 30.0408C60.6617 30.2758 61.2102 30.6206 61.6131 30.8072L62.3455 31.146H63.3361H64.3266L65.0591 30.8072C65.4619 30.6206 66.0105 30.2758 66.278 30.0408C66.5456 29.8057 66.9413 29.247 67.1572 28.799C67.3732 28.3512 67.5881 27.7094 67.6348 27.3729C67.6816 27.0364 67.6521 26.435 67.5693 26.0364C67.4866 25.6379 67.2284 24.9937 66.9954 24.605C66.7625 24.2163 66.2808 23.6788 65.925 23.4103C65.5693 23.1419 64.9413 22.8277 64.5296 22.7121C64.1178 22.5966 63.5472 22.5081 63.2613 22.5155C62.9755 22.523 62.5635 22.5749 62.3455 22.631ZM54.32 30.4324C54.0465 30.5012 53.5977 30.6724 53.3227 30.8128C53.0477 30.9531 52.5769 31.3138 52.2764 31.6144C51.976 31.9149 51.5927 32.4399 51.4248 32.7811L51.1193 33.4013V34.6564V35.9115L51.4248 36.5317C51.5927 36.8728 51.979 37.4023 52.2833 37.7083C52.5875 38.0142 53.1632 38.4171 53.5627 38.6037L54.2891 38.9427L55.3457 38.9403L56.4023 38.9379L57.1453 38.5788C57.5541 38.3813 58.1545 37.9352 58.4798 37.5873C58.8296 37.2133 59.1869 36.6455 59.3546 36.1971C59.5274 35.7351 59.638 35.1335 59.638 34.6564C59.638 34.1793 59.5274 33.5777 59.3546 33.1157C59.1869 32.6673 58.8296 32.0995 58.4798 31.7255C58.1545 31.3776 57.5677 30.9413 57.1754 30.7556C56.7339 30.5468 56.1493 30.3971 55.6399 30.3627C55.1876 30.3321 54.5936 30.3634 54.32 30.4324Z" fill="#FFB948"/>
<path fill-rule="evenodd" clip-rule="evenodd" d="M18.137 0.130106C17.7098 0.192407 17.0103 0.333178 16.5826 0.442928C16.155 0.552547 15.3819 0.812005 14.8645 1.01928C14.3471 1.22669 13.4552 1.67371 12.8826 2.01256C12.3099 2.35153 11.4828 2.91566 11.0446 3.26607C10.6064 3.61662 9.71251 4.45598 9.05808 5.13143C8.40379 5.80676 7.59954 6.7142 7.27089 7.14794C6.94223 7.58169 6.3721 8.39897 6.00392 8.96402C5.63561 9.5292 4.95335 10.7417 4.48762 11.6585C4.02188 12.5754 3.39844 13.9346 3.10221 14.679C2.80599 15.4235 2.36336 16.6952 2.11861 17.5049C1.87385 18.3147 1.52222 19.6575 1.33708 20.4888C1.15207 21.3202 0.914279 22.6806 0.808841 23.5119C0.703403 24.3432 0.57748 25.7036 0.52916 26.535C0.478739 27.4 0.501454 28.5805 0.582338 29.2951C0.660071 29.9819 0.813961 30.8987 0.924257 31.3324C1.03455 31.7662 1.36912 32.6238 1.66784 33.2383L2.21091 34.3555L3.20936 35.3436L4.2078 36.3318L5.19259 36.8132C5.73422 37.0781 6.5319 37.3884 6.96521 37.5029C7.39852 37.6174 8.31437 37.7476 9.00044 37.7922C9.71159 37.8383 10.7371 37.8077 11.386 37.7209C12.0119 37.6372 12.9278 37.4611 13.4212 37.3294C13.9147 37.1978 15.1261 36.7852 16.1134 36.4127C17.1006 36.0404 18.4301 35.6041 19.0677 35.4437L20.227 35.1517L21.9996 35.1525L23.7723 35.1533L24.954 35.5642C25.604 35.7903 26.5198 36.0484 26.9892 36.138C27.4587 36.2277 28.4336 36.3005 29.1558 36.3001C29.9429 36.2996 30.8106 36.2122 31.3223 36.0818C31.7917 35.9622 32.5894 35.6614 33.0949 35.4134C33.6004 35.1654 34.4031 34.6404 34.8787 34.2468C35.3542 33.8533 36.0514 33.1252 36.428 32.6289C36.8046 32.1327 37.4495 31.0466 37.8612 30.2152L38.6097 28.7037L38.6546 27.6522L38.6994 26.6007L38.4153 26.2392C38.259 26.0404 38.0135 25.8778 37.8697 25.8778C37.7246 25.8778 37.1595 26.3052 36.5991 26.839C36.0439 27.3676 35.1611 28.0548 34.6372 28.3657C34.1133 28.6769 33.1975 29.1011 32.602 29.3087L31.5193 29.6859L30.4032 29.6864L29.2871 29.6868L28.6296 29.3805C28.268 29.2118 27.7901 28.8664 27.5675 28.6126C27.3449 28.3589 27.0332 27.8832 26.8747 27.5554C26.7163 27.2276 26.5516 26.6647 26.5091 26.3044C26.4568 25.8632 26.5016 25.4397 26.6459 25.0078C26.7638 24.6549 27.0696 24.1026 27.3255 23.7804C27.5814 23.4583 28.0896 22.9699 28.4547 22.6953C28.8198 22.4207 30.1314 21.6995 31.3693 21.0927C32.8317 20.3758 33.7927 19.8182 34.1125 19.5012C34.3834 19.2327 34.6049 18.9057 34.6049 18.7745C34.6049 18.6433 34.5126 18.4437 34.4 18.3309C34.2872 18.218 33.7998 18.0061 33.3167 17.8601C32.8336 17.7139 32.0248 17.5039 31.5193 17.3932C31.0137 17.2824 29.8911 17.1574 29.0245 17.1155L27.4488 17.0391L26.3984 17.2405C25.8206 17.3512 25.005 17.5709 24.5858 17.7288C24.1667 17.8865 23.3833 18.3107 22.845 18.6711C22.3065 19.0316 21.5913 19.662 21.2554 20.0719C20.9195 20.482 20.4145 21.3202 20.1331 21.9347C19.8518 22.5491 19.3738 23.5541 19.071 24.1678C18.7684 24.7816 18.2052 25.7279 17.8195 26.2708C17.4339 26.8137 16.6952 27.6916 16.178 28.2218C15.6606 28.752 14.8738 29.4481 14.4294 29.7687C13.985 30.0893 13.2264 30.5309 12.7434 30.7502C12.2527 30.9729 11.422 31.212 10.8597 31.2925L9.85392 31.4363L9.09104 31.2749C8.59943 31.1708 8.17335 30.9774 7.89301 30.731C7.65377 30.5207 7.32709 30.0441 7.16716 29.6718C6.96902 29.2109 6.8536 28.6133 6.80528 27.7979C6.76615 27.1394 6.80489 26.0706 6.89115 25.4226C6.97742 24.7747 7.24699 23.4676 7.49016 22.518C7.73334 21.5682 8.24412 19.969 8.62517 18.9642C9.00622 17.9593 9.82359 16.1317 10.4414 14.9028C11.0592 13.6738 11.9478 12.0571 12.4162 11.31C12.8846 10.563 13.5752 9.57717 13.9509 9.1195C14.3266 8.66184 15.0224 8.01004 15.497 7.67093C15.9717 7.33196 16.6528 6.94316 17.0104 6.80712C17.3681 6.67109 18.0709 6.49601 18.5722 6.4182L19.4836 6.27664L20.5 6.4182C21.059 6.49601 22.1211 6.76217 22.8602 7.0098C23.5993 7.25743 24.741 7.72995 25.3974 8.05986C26.0538 8.38989 27.5816 9.21375 28.7924 9.89065C30.0033 10.5676 31.4182 11.3071 31.9365 11.534C32.4549 11.761 33.4299 12.0917 34.1031 12.269C34.7763 12.4463 35.9771 12.66 36.7715 12.7439C37.632 12.8347 38.771 12.8593 39.5893 12.8046C40.3447 12.754 41.5264 12.6281 42.2154 12.5245C42.9043 12.4209 44.2536 12.1294 45.2137 11.8765C46.174 11.6238 47.7016 11.1476 48.6086 10.8185C49.5157 10.4893 50.9459 9.92061 51.7869 9.55469C52.6279 9.18864 54.0545 8.51976 54.9572 8.06827C55.8599 7.61678 57.0121 7.09852 57.5177 6.91661C58.0232 6.73483 58.8965 6.51178 59.4584 6.42109C60.0223 6.33014 60.9101 6.28887 61.4403 6.32896C61.9684 6.36891 62.819 6.54727 63.3306 6.72537C63.842 6.90347 64.6729 7.32354 65.1768 7.65897C65.6808 7.99427 66.4241 8.62648 66.8285 9.06377C67.2331 9.5012 67.8015 10.2091 68.0918 10.6371C68.3821 11.0649 68.8844 11.9407 69.208 12.5829C69.5316 13.2252 70.0255 14.4535 70.3056 15.3124C70.5857 16.1715 71.144 18.146 71.5463 19.7002C71.9486 21.2545 72.5449 23.7386 72.8714 25.2206C73.1979 26.7025 73.6687 29.0684 73.9175 30.4781C74.1665 31.8877 74.4929 34.0059 74.6429 35.1851C74.7928 36.3644 74.9852 38.477 75.0704 39.8799L75.2251 42.4307L75.0703 44.4392C74.9851 45.544 74.8279 46.8566 74.7209 47.3562C74.614 47.8559 74.3491 48.6442 74.1325 49.1078C73.8763 49.6557 73.4505 50.2385 72.9154 50.7733C72.3793 51.3092 71.795 51.7357 71.2391 51.9966C70.7696 52.217 70.0654 52.4716 69.6743 52.5625C69.2145 52.6693 68.5413 52.6995 67.7704 52.648C67.1144 52.6043 66.1101 52.448 65.5387 52.301C64.9671 52.1539 63.8904 51.7423 63.1458 51.3862C62.4013 51.0302 60.3872 49.8276 58.6701 48.7137C56.9529 47.5999 55.1936 46.4766 54.7603 46.2175C54.327 45.9584 53.2338 45.3521 52.3311 44.8702C51.4284 44.3882 50.0989 43.7384 49.3768 43.4261C48.6546 43.1138 47.5024 42.6805 46.8163 42.4631C46.1302 42.2457 45.1258 41.9769 44.5841 41.8659C44.0425 41.755 43.0987 41.6019 42.4867 41.5258C41.8748 41.4497 40.8096 41.3874 40.1197 41.3874C39.4299 41.3874 38.3647 41.448 37.7528 41.5221C37.1408 41.5962 36.0197 41.8101 35.2615 41.9974C34.5032 42.1846 33.3696 42.5592 32.7425 42.8298C32.0631 43.1229 30.5772 44.0114 29.066 45.0281C27.671 45.9665 25.8502 47.1484 25.0197 47.6543C24.1892 48.1602 22.7818 48.9745 21.8924 49.4637C21.0029 49.953 19.5747 50.6679 18.7186 51.0526C17.8626 51.4372 16.5813 51.9429 15.8715 52.1763L14.5809 52.6007L13.3335 52.6111L12.0861 52.6216L11.2704 52.2463C10.7355 52.0002 10.2136 51.6164 9.75347 51.131C9.3677 50.7239 8.86835 50.0655 8.64395 49.6679C8.41955 49.2703 8.0557 48.4127 7.8355 47.7621C7.6153 47.1115 7.24765 45.8536 7.01865 44.967C6.76326 43.9785 6.44367 43.0932 6.19274 42.679C5.95666 42.2893 5.589 41.8971 5.3239 41.7524L4.86433 41.5016L3.73904 41.5496L2.61376 41.5976L2.00792 41.953C1.67453 42.1485 1.28889 42.4708 1.15076 42.6694C1.01262 42.8679 0.831556 43.2315 0.748309 43.4771C0.665062 43.7229 0.596912 44.4127 0.596912 45.0099C0.596912 45.6073 0.679897 46.53 0.781396 47.0605C0.882763 47.591 1.09285 48.4094 1.24818 48.8793C1.40352 49.3492 1.81766 50.3251 2.16863 51.048C2.51961 51.7709 3.21816 52.9835 3.72105 53.7425C4.22395 54.5016 4.95283 55.4219 5.34083 55.7875C5.72871 56.1533 6.5126 56.7671 7.08286 57.1517C7.65298 57.5363 8.48362 58.0162 8.92861 58.2182C9.37374 58.4201 10.0975 58.6786 10.537 58.7927C11.0069 58.9146 11.8793 59 12.6545 59C13.3796 59 14.3967 58.9108 14.9148 58.8017C15.4328 58.6926 16.3082 58.4489 16.8601 58.2603C17.412 58.0715 18.5639 57.6019 19.42 57.2167C20.2761 56.8313 22.0082 55.9485 23.2691 55.2548C24.5302 54.5611 27.4294 52.8932 29.7121 51.5483C31.9947 50.2033 34.3988 48.8689 35.0543 48.5831C35.7099 48.297 36.8076 47.9173 37.4936 47.7392C38.2942 47.5313 39.2819 47.3895 40.251 47.3433L41.7611 47.2714L42.9955 47.4874C43.6744 47.6061 44.6789 47.8532 45.2276 48.0363C45.7765 48.2195 46.8459 48.665 47.6041 49.0263C48.3624 49.3875 49.5737 50.045 50.2959 50.4876C51.0181 50.93 52.643 51.9816 53.9068 52.8245C55.1706 53.6673 56.7955 54.7136 57.5177 55.1495C58.2398 55.5855 59.5047 56.2804 60.3284 56.6938C61.1521 57.1072 62.5111 57.6737 63.3484 57.9524C64.1857 58.2314 65.4321 58.5578 66.1182 58.6782C66.8826 58.8123 68.0519 58.8952 69.1382 58.8926C70.1562 58.8901 71.33 58.8052 71.8956 58.6932C72.4372 58.586 73.2801 58.3473 73.7684 58.1629C74.2568 57.9785 75.0545 57.5672 75.541 57.2491C76.0276 56.931 76.7642 56.3225 77.178 55.8966C77.5919 55.4709 78.0821 54.9156 78.2676 54.6626C78.453 54.4095 78.8037 53.847 79.047 53.4123C79.2902 52.9778 79.6746 52.1547 79.9014 51.5835C80.128 51.0123 80.4833 49.8487 80.6909 48.9979C80.8984 48.1471 81.1648 46.6634 81.283 45.7006C81.4235 44.5552 81.4977 42.9288 81.4977 40.9931C81.4977 39.278 81.4109 37.1523 81.2908 35.9327C81.177 34.7761 80.9392 32.9425 80.7624 31.8582C80.5855 30.7738 80.3156 28.8811 80.1627 27.6522C80.0096 26.4232 79.7383 24.6193 79.5597 23.6433C79.3811 22.6674 78.9661 20.8086 78.6376 19.5128C78.3089 18.2169 77.7844 16.4096 77.4718 15.4965C77.1595 14.5832 76.6012 13.1298 76.2314 12.2665C75.8615 11.4031 75.3177 10.2532 75.0229 9.71097C74.728 9.16879 74.1614 8.22244 73.7637 7.60797C73.3659 6.9935 72.6972 6.07029 72.2777 5.55624C71.8582 5.04232 71.0902 4.22819 70.5711 3.74713C70.0519 3.26594 69.2252 2.60481 68.7337 2.2778C68.2424 1.95078 67.386 1.47313 66.8307 1.2163C66.2755 0.959473 65.2527 0.599469 64.5581 0.416246L63.2951 0.0833121L61.3912 0.0725381C60.0555 0.0650462 59.1346 0.131812 58.3055 0.29624C57.6555 0.42518 56.4738 0.740631 55.6794 0.997197C54.885 1.25376 53.7919 1.71485 53.2503 2.02162C52.7086 2.32853 51.6746 2.87571 50.9524 3.23755C50.2302 3.5994 49.0513 4.14579 48.3324 4.45164C47.6136 4.75749 46.4313 5.20254 45.7052 5.44057C44.9791 5.67874 43.7652 6.01232 43.0074 6.18201L41.6298 6.49063L39.3319 6.48668L37.0341 6.48287L35.918 6.18228C35.3041 6.01693 34.2996 5.66888 33.6858 5.40864C33.0719 5.14839 32.2447 4.75749 31.8475 4.53997C31.4503 4.32257 30.3277 3.67195 29.3527 3.09415C28.3778 2.51649 27.0483 1.792 26.3984 1.48417C25.7484 1.17648 24.853 0.803069 24.4087 0.654676C23.9644 0.506152 23.085 0.294663 22.4547 0.18465C21.8245 0.0746367 20.7698 -0.00816405 20.1113 0.00064226C19.4528 0.00944857 18.5644 0.0676734 18.137 0.130106Z" fill="#02A09B"/>
</svg>
