<svg width="21" height="21" viewBox="0 0 21 21" fill="none" xmlns="http://www.w3.org/2000/svg">
<g clip-path="url(#clip0_1257_4865)">
<path d="M19.5254 9.15563C19.445 6.86499 18.5174 4.72299 16.8885 3.09417C15.1813 1.38661 12.9123 0.446533 10.5 0.446533C5.62763 0.446533 1.64648 4.32464 1.47488 9.15563C0.731344 9.48605 0.210938 10.2302 0.210938 11.0952V13.478C0.210938 14.6481 1.16283 15.6003 2.33325 15.6003C3.09056 15.6003 3.70645 14.9844 3.70645 14.2271V10.3457C3.70645 9.63469 3.16111 9.05489 2.46778 8.98599C2.72372 4.77713 6.22744 1.43091 10.5 1.43091C12.6498 1.43091 14.6714 2.26894 16.1929 3.79045C17.5901 5.18761 18.4078 7.0087 18.5308 8.98631C17.8381 9.05588 17.2938 9.63535 17.2938 10.3457V14.2268C17.2938 14.9438 17.8477 15.5272 18.5492 15.5879V16.5686C18.5492 17.6731 17.6505 18.5715 16.546 18.5715H15.0625C14.9897 18.3635 14.8755 18.1712 14.7154 18.0117C14.4348 17.7299 14.0608 17.5747 13.6624 17.5747H12.1334C11.9138 17.5747 11.7032 17.6213 11.5103 17.7112C10.9839 17.953 10.644 18.4839 10.644 19.0637C10.644 19.462 10.7992 19.8361 11.0804 20.116C11.3616 20.3978 11.7357 20.553 12.1334 20.553H13.6624C14.2964 20.553 14.8552 20.1432 15.0635 19.5559H16.546C18.1935 19.5559 19.5336 18.2158 19.5336 16.5686V15.4126C20.2725 15.0803 20.789 14.3387 20.789 13.4774V11.0945C20.789 10.2302 20.2686 9.48605 19.5254 9.15563ZM2.72175 10.3457V14.2268C2.72175 14.4411 2.54752 14.6156 2.33292 14.6156C1.70555 14.6156 1.19498 14.1051 1.19498 13.4777V11.0948C1.19498 10.4671 1.70555 9.95691 2.33292 9.95691C2.54752 9.95691 2.72175 10.1315 2.72175 10.3457ZM14.1563 19.1693C14.1074 19.401 13.8993 19.5693 13.6621 19.5693H12.133C11.9985 19.5693 11.8722 19.5168 11.7757 19.4204C11.6805 19.3255 11.628 19.1989 11.628 19.0643C11.628 18.8678 11.7432 18.6883 11.9237 18.6053C11.988 18.5751 12.0585 18.5597 12.133 18.5597H13.6621C13.7966 18.5597 13.923 18.6119 14.0191 18.7083C14.1143 18.8032 14.1668 18.9298 14.1668 19.0643C14.1671 19.1004 14.1631 19.1365 14.1563 19.1693ZM19.8046 13.4777C19.8046 14.1051 19.294 14.6156 18.6667 14.6156C18.4524 14.6156 18.2778 14.4414 18.2778 14.2268V10.3457C18.2778 10.1315 18.4521 9.95691 18.6667 9.95691C19.294 9.95691 19.8046 10.4675 19.8046 11.0948V13.4777Z" fill="#5F6C72"/>
<path d="M13.6873 13.6474C14.8373 13.6474 15.7728 12.7115 15.7728 11.5618V7.31225C15.7728 6.7564 15.5556 6.23272 15.1612 5.83831C14.7668 5.4439 14.2434 5.22668 13.6873 5.22668H7.3131C6.16302 5.22668 5.22754 6.16217 5.22754 7.31225V11.5618C5.22754 12.7119 6.16302 13.6474 7.3131 13.6474H7.35215V14.7485C7.35215 15.1685 7.60251 15.5413 7.9897 15.6985C8.11471 15.7487 8.24465 15.7736 8.37327 15.7736C8.64135 15.7736 8.90254 15.6673 9.09384 15.4694L10.9258 13.6474H13.6873ZM10.3761 12.806L8.39362 14.7777C8.38476 14.7869 8.3782 14.7938 8.35949 14.7856C8.33685 14.7764 8.33685 14.7617 8.33685 14.7485V13.1552C8.33685 12.8835 8.11668 12.663 7.84466 12.663H7.31343C6.70607 12.663 6.21224 12.1688 6.21224 11.5618V7.31225C6.21224 6.70489 6.70607 6.21106 7.31343 6.21106H13.6876C13.9809 6.21106 14.2569 6.3259 14.4656 6.53426C14.6743 6.74295 14.7888 7.01923 14.7888 7.31225V11.5618C14.7888 12.1692 14.2946 12.663 13.6876 12.663H10.7233C10.593 12.663 10.4684 12.7145 10.3761 12.806Z" fill="#5F6C72"/>
<path d="M8.10895 8.78943C7.70864 8.78943 7.38281 9.11558 7.38281 9.51557C7.38281 9.91555 7.70897 10.2417 8.10895 10.2417C8.50959 10.2417 8.83575 9.91555 8.83575 9.51557C8.83575 9.11558 8.50992 8.78943 8.10895 8.78943Z" fill="#5F6C72"/>
<path d="M10.4996 8.78943C10.0993 8.78943 9.77344 9.11558 9.77344 9.51557C9.77344 9.91555 10.0996 10.2417 10.4996 10.2417C10.9005 10.2417 11.2264 9.91555 11.2264 9.51557C11.2264 9.11558 10.9005 8.78943 10.4996 8.78943Z" fill="#5F6C72"/>
<path d="M12.8902 8.78943C12.4899 8.78943 12.1641 9.11558 12.1641 9.51557C12.1641 9.91555 12.4902 10.2417 12.8902 10.2417C13.2908 10.2417 13.617 9.91555 13.617 9.51557C13.617 9.11558 13.2908 8.78943 12.8902 8.78943Z" fill="#5F6C72"/>
</g>
<defs>
<clipPath id="clip0_1257_4865">
<rect width="21" height="21" fill="white"/>
</clipPath>
</defs>
</svg>
