<svg width="25" height="25" viewBox="0 0 25 25" fill="none" xmlns="http://www.w3.org/2000/svg">
<path d="M12.4773 24.2203C9.59618 24.2141 6.81825 23.1471 4.67394 21.2228C2.52964 19.2985 1.16919 16.6519 0.852388 13.7882C0.841112 13.6862 0.850037 13.583 0.878651 13.4845C0.907266 13.3859 0.95501 13.294 1.01916 13.2139C1.08331 13.1338 1.1626 13.0671 1.25252 13.0177C1.34243 12.9682 1.44121 12.937 1.5432 12.9257C1.64519 12.9144 1.74841 12.9234 1.84696 12.952C1.9455 12.9806 2.03744 13.0283 2.11754 13.0925C2.19763 13.1566 2.26431 13.2359 2.31375 13.3258C2.3632 13.4158 2.39446 13.5145 2.40573 13.6165C2.70186 16.2937 4.04938 18.7437 6.15186 20.4273C8.25433 22.111 10.9395 22.8905 13.6167 22.5944C16.294 22.2983 18.7439 20.9508 20.4276 18.8483C22.1112 16.7458 22.8908 14.0606 22.5946 11.3834C22.3502 9.17654 21.3894 7.11056 19.8593 5.50163C18.3291 3.89271 16.314 2.82948 14.1221 2.47466C11.9303 2.11985 9.68261 2.49299 7.72301 3.53698C5.76341 4.58098 4.19986 6.23831 3.27167 8.25534C3.18447 8.4429 3.02647 8.58824 2.8323 8.65949C2.63812 8.73075 2.42362 8.72211 2.2358 8.63547C2.04799 8.54884 1.90218 8.39127 1.83035 8.1973C1.75852 8.00334 1.76652 7.78881 1.8526 7.60074C2.59699 5.98385 3.69985 4.55773 5.07752 3.43058C6.45518 2.30343 8.07147 1.50484 9.80375 1.09541C11.536 0.685984 13.3388 0.676464 15.0753 1.06757C16.8118 1.45868 18.4365 2.24015 19.826 3.35269C21.635 4.80159 22.9737 6.75435 23.6729 8.96407C24.3722 11.1738 24.4005 13.5412 23.7543 15.767C23.1081 17.9928 21.8165 19.9771 20.0426 21.4688C18.2688 22.9605 16.0925 23.8928 13.7888 24.1478C13.3533 24.196 12.9155 24.2202 12.4773 24.2203Z" fill="#02A09B" stroke="#02A09B" stroke-width="0.5"/>
<path d="M2.55479 8.71082C2.36705 8.71085 2.18558 8.64322 2.04364 8.52034C1.9017 8.39746 1.80879 8.22754 1.78193 8.04173L1.17997 3.89591C1.16524 3.79442 1.17065 3.69102 1.19588 3.59162C1.22111 3.49221 1.26568 3.39875 1.32703 3.31657C1.38838 3.23439 1.46532 3.1651 1.55345 3.11265C1.64159 3.06021 1.73918 3.02563 1.84068 3.0109C1.94217 2.99617 2.04557 3.00158 2.14497 3.02681C2.24438 3.05205 2.33784 3.09661 2.42002 3.15796C2.5022 3.21932 2.57149 3.29625 2.62394 3.38439C2.67639 3.47252 2.71096 3.57012 2.72569 3.67161L3.20329 6.95645L6.17112 6.19427C6.37184 6.14267 6.58485 6.17292 6.76326 6.27837C6.94168 6.38382 7.07091 6.55583 7.1225 6.75655C7.1741 6.95728 7.14385 7.17028 7.0384 7.3487C6.93295 7.52712 6.76095 7.65634 6.56022 7.70794L2.74934 8.68641C2.68576 8.70264 2.6204 8.71084 2.55479 8.71082Z" fill="#02A09B" stroke="#02A09B" stroke-width="0.5"/>
<path d="M16.4055 16.4062C16.2282 16.4063 16.0562 16.3459 15.918 16.235L12.0117 13.11C11.9202 13.0368 11.8464 12.944 11.7957 12.8384C11.745 12.7328 11.7187 12.6171 11.7188 12.5V6.25C11.7188 6.0428 11.8011 5.84409 11.9476 5.69757C12.0941 5.55106 12.2928 5.46875 12.5 5.46875C12.7072 5.46875 12.9059 5.55106 13.0524 5.69757C13.1989 5.84409 13.2813 6.0428 13.2813 6.25V12.1246L16.8945 15.015C17.021 15.1162 17.1129 15.2542 17.1574 15.4099C17.202 15.5656 17.1971 15.7313 17.1434 15.8841C17.0897 16.0369 16.9898 16.1692 16.8576 16.2627C16.7254 16.3563 16.5674 16.4064 16.4055 16.4062Z" fill="#02A09B" stroke="#02A09B" stroke-width="0.5"/>
</svg>
