<svg width="21" height="16" viewBox="0 0 21 16" fill="none" xmlns="http://www.w3.org/2000/svg">
<path d="M13.2068 5.33491C13.2522 5.42766 13.35 5.5641 13.424 5.63812C13.498 5.71214 13.6455 5.81349 13.7519 5.86337L13.9453 5.95404L14.2193 5.95356L14.4932 5.95308L14.6644 5.87488C14.7586 5.83189 14.9024 5.7319 14.984 5.65275C15.0657 5.57359 15.1722 5.43174 15.2208 5.33754L15.3091 5.16628L15.324 4.90938L15.3389 4.65247L13.2068 5.33491ZM13.2068 5.33491L13.1242 5.16628M13.2068 5.33491L13.1242 5.16628M15.2378 4.6679L15.1716 4.49246L15.1716 4.49245L15.2378 4.6679ZM15.2378 4.6679L15.2242 4.90359L15.2242 4.9036L15.2105 5.13931L15.1319 5.2917C15.0887 5.37559 14.9888 5.5088 14.9144 5.58095C14.8402 5.65296 14.7057 5.74612 14.6229 5.78391L14.6229 5.78392L14.4714 5.85312L14.2191 5.85356L13.9675 5.854L13.7944 5.77283C13.6972 5.72728 13.5595 5.63229 13.4947 5.56742C13.4284 5.50107 13.3371 5.37364 13.2966 5.29091L13.2966 5.2909L13.2231 5.14103L13.2117 4.88132L13.2005 4.62474L13.2813 4.44769L15.2378 4.6679ZM13.1242 5.16628L13.1118 4.88571L13.0995 4.6051L13.1242 5.16628ZM11.6406 6.04552L11.6405 6.04554C11.5943 6.06947 11.4855 6.15063 11.4036 6.22612L11.4036 6.22613C11.3274 6.29639 11.2263 6.42835 11.1835 6.51201C11.1835 6.51201 11.1835 6.51201 11.1835 6.51202L11.1049 6.66594L11.0913 6.90185L11.0913 6.90186L11.0776 7.13755L11.1476 7.32297L11.1476 7.32298L11.2173 7.50805L11.3938 7.68456L11.569 7.85981L11.735 7.91633L11.735 7.91633C11.8276 7.94788 11.9938 7.97501 12.0962 7.97501C12.1992 7.97501 12.3611 7.94908 12.4481 7.91939L12.4481 7.91939L11.6406 6.04552ZM11.6406 6.04552C11.691 6.01945 11.7893 5.98283 11.854 5.96656L11.6406 6.04552ZM13.0231 6.52261L13.0231 6.52259C12.9846 6.4445 12.8932 6.31655 12.8238 6.24499L12.8238 6.24497L13.0231 6.52261ZM13.0231 6.52261L13.0919 6.66239L13.0231 6.52261ZM12.164 5.94835L12.164 5.94835L12.164 5.94835ZM12.164 5.94835C12.283 5.95484 12.4204 5.98862 12.5269 6.03738L12.164 5.94835ZM15.6767 6.14937L15.6767 6.14938C15.6076 6.19985 15.505 6.30584 15.4547 6.37907C15.405 6.45128 15.3366 6.59897 15.307 6.70079L15.307 6.7008L15.6767 6.14937ZM15.6767 6.14937C15.7533 6.09333 15.8482 6.03639 15.8838 6.02173C15.9261 6.00436 16.0064 5.97804 16.059 5.9645C16.1066 5.95227 16.2057 5.93949 16.2742 5.93768C16.3347 5.93613 16.472 5.95653 16.5734 5.98496C16.6676 6.01142 16.8193 6.08712 16.902 6.14953L16.902 6.14954C16.9838 6.21127 17.1001 6.34094 17.154 6.43088C17.2093 6.52311 17.2717 6.67971 17.2906 6.77091L17.2906 6.77094C17.3102 6.86522 17.3167 7.00945 17.3065 7.08335C17.2963 7.15673 17.245 7.31277 17.1916 7.42344L17.1916 7.42345C17.1393 7.53197 17.0439 7.66436 16.9877 7.71369C16.9271 7.76696 16.7935 7.85148 16.6957 7.89677L16.7377 7.98753M15.6767 6.14937L17.3885 6.7506C17.41 6.85395 17.4176 7.00987 17.4055 7.09711C17.3934 7.18435 17.3377 7.35075 17.2817 7.46687C17.2257 7.58303 17.1231 7.72789 17.0537 7.78882C16.9844 7.84976 16.8422 7.93916 16.7377 7.98753M16.7377 7.98753L16.6957 7.89679L16.5258 7.97539M16.7377 7.98753L16.5478 8.07539M16.5478 8.07539V7.97539H16.5258M16.5478 8.07539L16.5058 7.98463L16.5258 7.97539M16.5478 8.07539H16.291H16.0341M16.5258 7.97539H16.291H16.0562M16.0562 7.97539L16.0761 7.98463L16.0341 8.07539M16.0562 7.97539L15.8863 7.89679L15.8442 7.98753M16.0562 7.97539H16.0341V8.07539M16.0341 8.07539L15.8442 7.98753M15.8442 7.98753L15.8862 7.89677M15.8442 7.98753C15.7398 7.93916 15.5976 7.84976 15.5282 7.78882L15.8862 7.89677M15.8862 7.89677C15.7884 7.85148 15.6548 7.76696 15.5942 7.71369C15.5379 7.66424 15.4408 7.53039 15.3865 7.41992L15.3865 7.4199C15.3309 7.30695 15.281 7.1436 15.2715 7.05166L15.8862 7.89677ZM13.9778 7.98732L13.9777 7.98733C13.9148 8.00317 13.8055 8.04475 13.7402 8.07806L13.7402 8.07807C13.681 8.10828 13.5673 8.19442 13.4942 8.26752C13.4231 8.33861 13.3306 8.46594 13.2924 8.54346L13.2924 8.54349L13.2235 8.68342V8.98554V9.28765L13.2924 9.42758L13.2924 9.42761C13.3305 9.50508 13.4239 9.63366 13.4962 9.70631C13.5666 9.7771 13.7061 9.87485 13.7993 9.91835L13.9674 9.9968L14.219 9.99624L14.4702 9.99567L14.6423 9.91248L14.6423 9.91248C14.7367 9.8669 14.8825 9.75879 14.9588 9.67715L14.9588 9.67714C15.0412 9.58912 15.1264 9.45305 15.165 9.34998C15.2058 9.24101 15.2322 9.09686 15.2322 8.98554L13.9778 7.98732ZM13.9778 7.98732C14.0343 7.97308 14.1764 7.96446 14.2888 7.97207L14.2888 7.97207M13.9778 7.98732L14.2888 7.97207M14.9588 8.29393L14.9588 8.29392L14.9588 8.29393ZM14.9588 8.29393C15.0412 8.38195 15.1264 8.51802 15.165 8.6211L15.2587 8.58607M14.9588 8.29393L15.0318 8.22562M15.2587 8.58607C15.2152 8.46982 15.1226 8.32259 15.0318 8.22562M15.2587 8.58607C15.3035 8.70586 15.3322 8.86185 15.3322 8.98554C15.3322 9.10923 15.3035 9.26521 15.2587 9.385L15.165 8.62111L15.2587 8.58607ZM15.0318 8.22562C14.9475 8.13543 14.7954 8.02229 14.6937 7.97417M15.0318 8.22562L14.6937 7.97417M14.2888 7.97207C14.409 7.98017 14.5482 8.01599 14.6509 8.06456L14.2888 7.97207ZM13.6927 3.96533C13.644 3.9956 13.5459 4.07778 13.4796 4.14619C13.4193 4.20837 13.3274 4.3466 13.2813 4.44769L13.6927 3.96533ZM13.6927 3.96533C13.7396 3.93621 13.8605 3.88652 13.9578 3.85934L13.6927 3.96533ZM14.6937 7.97417L14.6509 8.06456L14.6937 7.97417ZM13.9579 3.85933C14.0612 3.83051 14.1907 3.81879 14.2935 3.82865L14.2935 3.82865L13.9579 3.85933ZM13.192 6.63917L13.1128 6.47842L13.192 6.63917ZM12.7664 7.72214C12.7664 7.72214 12.7664 7.72214 12.7664 7.72214L12.8333 7.7965L12.7664 7.72214ZM14.649 3.92816C14.7642 3.9799 14.8794 4.06423 14.9666 4.16126L14.649 3.92816ZM13.0992 7.46496L13.0106 7.4185L13.0106 7.41852L13.0992 7.46496ZM13.091 7.26529L13.0909 7.28983L13.1909 7.28999L13.1024 7.24356L13.091 7.26529Z" fill="#5F6C72" stroke="#5F6C72" stroke-width="0.2"/>
<mask id="path-2-inside-1_1257_4860" fill="white">
<path fill-rule="evenodd" clip-rule="evenodd" d="M4.5722 0.0337332C4.46142 0.0498864 4.28007 0.0863845 4.16919 0.11484C4.05831 0.143261 3.85786 0.210532 3.72372 0.264274C3.58956 0.31805 3.35833 0.43395 3.20986 0.521804C3.06136 0.609693 2.84692 0.755956 2.73331 0.846809C2.61971 0.937696 2.38794 1.15532 2.21826 1.33045C2.04862 1.50554 1.8401 1.74082 1.75489 1.85328C1.66967 1.96574 1.52185 2.17764 1.42639 2.32414C1.3309 2.47068 1.15401 2.78505 1.03325 3.02275C0.9125 3.26048 0.750858 3.61288 0.674054 3.8059C0.597251 3.99892 0.482488 4.32863 0.41903 4.53859C0.355572 4.74854 0.264402 5.09669 0.2164 5.31224C0.168432 5.52778 0.106779 5.88049 0.0794415 6.09604C0.0521041 6.31158 0.0194557 6.66429 0.00692746 6.87984C-0.00614547 7.10411 -0.000255883 7.4102 0.0207153 7.59549C0.0408694 7.77355 0.0807691 8.01124 0.109366 8.1237C0.137963 8.23616 0.224707 8.45852 0.302158 8.61784L0.442963 8.9075L0.701835 9.1637L0.960706 9.41991L1.21604 9.54473C1.35647 9.6134 1.56329 9.69386 1.67563 9.72355C1.78798 9.75323 2.02543 9.787 2.20331 9.79855C2.3877 9.81051 2.65358 9.80257 2.82183 9.78008C2.98412 9.75837 3.22157 9.71271 3.34951 9.67856C3.47745 9.64445 3.79154 9.53748 4.04751 9.4409C4.30349 9.34435 4.64819 9.23125 4.81351 9.18964L5.11408 9.11395L5.57368 9.11415L6.03327 9.11436L6.33967 9.22089C6.50819 9.2795 6.74564 9.34643 6.86735 9.36967C6.98906 9.39292 7.24184 9.4118 7.42908 9.41169C7.63317 9.41156 7.85814 9.3889 7.99081 9.35509C8.11251 9.32408 8.31933 9.2461 8.4504 9.1818C8.58147 9.11749 8.78958 8.98139 8.91289 8.87932C9.03616 8.77729 9.21694 8.58853 9.31458 8.45985C9.41221 8.3312 9.57944 8.04958 9.68617 7.83403L9.88025 7.44213L9.8919 7.16951L9.9035 6.89688L9.82983 6.80316C9.78932 6.7516 9.72566 6.70945 9.68838 6.70945C9.65076 6.70945 9.50424 6.82027 9.35894 6.95866C9.215 7.09573 8.98612 7.27389 8.85028 7.35452C8.71445 7.43518 8.47699 7.54519 8.3226 7.599L8.04187 7.6968L7.7525 7.69694L7.46312 7.69704L7.29267 7.6176C7.19891 7.57388 7.07499 7.48432 7.01728 7.41852C6.95958 7.35275 6.87876 7.22942 6.83767 7.14443C6.79657 7.05943 6.75388 6.91348 6.74285 6.82007C6.7293 6.70567 6.74091 6.59586 6.77833 6.48388C6.8089 6.39238 6.88819 6.24918 6.95454 6.16566C7.02089 6.08213 7.15264 5.9555 7.24732 5.88431C7.34196 5.81312 7.68203 5.62613 8.00299 5.46879C8.38214 5.28293 8.63131 5.13837 8.71424 5.05617C8.78448 4.98655 8.84191 4.90176 8.84191 4.86775C8.84191 4.83374 8.81798 4.78198 8.78877 4.75274C8.75952 4.72346 8.63315 4.66853 8.5079 4.63067C8.38265 4.59277 8.17294 4.53831 8.04187 4.50962C7.9108 4.48089 7.61973 4.44849 7.39504 4.43761L6.98651 4.41782L6.71415 4.47002C6.56436 4.49872 6.35288 4.55569 6.24421 4.59662C6.13554 4.63752 5.93243 4.74749 5.79285 4.84093C5.65324 4.93441 5.4678 5.09785 5.38072 5.20414C5.29363 5.31046 5.1627 5.52778 5.08974 5.6871C5.01678 5.84641 4.89286 6.10698 4.81436 6.26609C4.73589 6.42523 4.58987 6.6706 4.48988 6.81134C4.3899 6.95212 4.19836 7.17973 4.06427 7.3172C3.93013 7.45467 3.72614 7.63515 3.6109 7.71827C3.4957 7.80139 3.29899 7.91589 3.17377 7.97273C3.04655 8.03049 2.83116 8.09249 2.68538 8.11334L2.4246 8.15062L2.2268 8.10878C2.09934 8.08179 1.98887 8.03165 1.91619 7.96776C1.85416 7.91323 1.76946 7.78966 1.72799 7.69315C1.67662 7.57364 1.64669 7.41869 1.63417 7.2073C1.62402 7.03657 1.63406 6.75944 1.65643 6.59143C1.6788 6.42346 1.74869 6.08455 1.81174 5.83834C1.87479 5.59209 2.00722 5.17746 2.10602 4.91693C2.20481 4.6564 2.41674 4.18254 2.57691 3.8639C2.73709 3.54527 2.9675 3.12611 3.08894 2.93241C3.21037 2.7387 3.38944 2.48312 3.48684 2.36446C3.58424 2.24579 3.76464 2.0768 3.88771 1.98888C4.01078 1.90099 4.18737 1.80019 4.2801 1.76491C4.37284 1.72964 4.55505 1.68425 4.68503 1.66408L4.92133 1.62737L5.18486 1.66408C5.32979 1.68425 5.60517 1.75326 5.7968 1.81746C5.98844 1.88167 6.28445 2.00418 6.45464 2.08972C6.62482 2.17529 7.02093 2.38889 7.33488 2.56439C7.64883 2.7399 8.01566 2.93166 8.15006 2.99048C8.28447 3.04933 8.53725 3.13507 8.71179 3.18104C8.88634 3.22701 9.19767 3.28243 9.40364 3.30417C9.62676 3.32772 9.92206 3.33409 10.1342 3.31991C10.3301 3.30679 10.6365 3.27414 10.8151 3.24729C10.9937 3.22044 11.3436 3.14485 11.5925 3.07928C11.8415 3.01375 12.2375 2.89029 12.4727 2.80495C12.7079 2.71962 13.0787 2.57216 13.2967 2.47729C13.5148 2.38238 13.8847 2.20896 14.1187 2.0919C14.3528 1.97484 14.6515 1.84047 14.7826 1.7933C14.9137 1.74617 15.1401 1.68834 15.2858 1.66483C15.432 1.64124 15.6622 1.63054 15.7996 1.64094C15.9366 1.6513 16.1571 1.69754 16.2897 1.74372C16.4223 1.78989 16.6378 1.89881 16.7684 1.98578C16.8991 2.07271 17.0918 2.23663 17.1967 2.35001C17.3016 2.46342 17.4489 2.64697 17.5242 2.75793C17.5995 2.86885 17.7297 3.09591 17.8136 3.26242C17.8975 3.42896 18.0256 3.74742 18.0982 3.97013C18.1708 4.19286 18.3156 4.70479 18.4199 5.10776C18.5242 5.51074 18.6788 6.15482 18.7634 6.53906C18.8481 6.92329 18.9702 7.5367 19.0347 7.90219C19.0992 8.26768 19.1838 8.81686 19.2227 9.12261C19.2616 9.42836 19.3115 9.9761 19.3336 10.3399L19.3737 11.0012L19.3335 11.522C19.3114 11.8084 19.2707 12.1487 19.243 12.2783C19.2152 12.4078 19.1466 12.6122 19.0904 12.7324C19.024 12.8745 18.9136 13.0256 18.7748 13.1642C18.6358 13.3032 18.4843 13.4138 18.3402 13.4814C18.2185 13.5386 18.0359 13.6046 17.9345 13.6281C17.8153 13.6558 17.6407 13.6637 17.4409 13.6503C17.2708 13.6389 17.0104 13.5984 16.8622 13.5603C16.7141 13.5222 16.4349 13.4155 16.2418 13.3231C16.0488 13.2308 15.5266 12.919 15.0814 12.6302C14.6362 12.3414 14.18 12.0502 14.0677 11.983C13.9553 11.9158 13.6719 11.7586 13.4379 11.6337C13.2038 11.5087 12.8591 11.3403 12.6719 11.2593C12.4846 11.1783 12.1859 11.066 12.008 11.0096C11.8301 10.9532 11.5697 10.8835 11.4293 10.8548C11.2888 10.826 11.0441 10.7863 10.8854 10.7666C10.7268 10.7468 10.4506 10.7307 10.2718 10.7307C10.0929 10.7307 9.81673 10.7464 9.65808 10.7656C9.4994 10.7848 9.20873 10.8403 9.01213 10.8889C8.81553 10.9374 8.52162 11.0345 8.35903 11.1047C8.18288 11.1807 7.79761 11.411 7.40579 11.6746C7.04411 11.918 6.57202 12.2244 6.35669 12.3556C6.14136 12.4867 5.77648 12.6978 5.54586 12.8247C5.31525 12.9516 4.94495 13.1369 4.72298 13.2367C4.50105 13.3364 4.16885 13.4675 3.98481 13.528L3.65019 13.638L3.32677 13.6407L3.00335 13.6434L2.79187 13.5461C2.65317 13.4823 2.51785 13.3828 2.39856 13.257C2.29854 13.1514 2.16907 12.9807 2.11088 12.8776C2.0527 12.7745 1.95837 12.5522 1.90128 12.3835C1.84418 12.2148 1.74886 11.8887 1.68949 11.6588C1.62327 11.4025 1.54041 11.173 1.47535 11.0656C1.41414 10.9645 1.31882 10.8629 1.25008 10.8253L1.13093 10.7603L0.839168 10.7727L0.54741 10.7852L0.390332 10.8773C0.303894 10.928 0.203906 11.0116 0.168091 11.0631C0.132277 11.1146 0.0853312 11.2088 0.0637472 11.2725C0.0421633 11.3362 0.0244939 11.5151 0.0244939 11.6699C0.0244939 11.8248 0.0460097 12.064 0.0723258 12.2016C0.0986078 12.3391 0.153078 12.5513 0.193352 12.6732C0.233626 12.795 0.341002 13.048 0.432001 13.2355C0.523001 13.4229 0.704116 13.7373 0.834504 13.9341C0.964893 14.1309 1.15387 14.3695 1.25447 14.4643C1.35504 14.5591 1.55828 14.7183 1.70613 14.818C1.85395 14.9177 2.06932 15.0421 2.18469 15.0945C2.3001 15.1468 2.48775 15.2139 2.6017 15.2435C2.72354 15.275 2.94973 15.2972 3.15073 15.2972C3.33872 15.2972 3.60242 15.2741 3.73676 15.2458C3.87107 15.2175 4.09804 15.1543 4.24112 15.1054C4.38421 15.0565 4.68288 14.9347 4.90485 14.8348C5.12682 14.7349 5.57589 14.506 5.90282 14.3262C6.22977 14.1463 6.98147 13.7139 7.57332 13.3652C8.16515 13.0164 8.78846 12.6705 8.95841 12.5963C9.12839 12.5222 9.413 12.4237 9.59088 12.3776C9.79844 12.3237 10.0545 12.2869 10.3058 12.2749L10.6973 12.2563L11.0174 12.3123C11.1934 12.343 11.4538 12.4071 11.5961 12.4546C11.7384 12.5021 12.0157 12.6176 12.2123 12.7113C12.4089 12.8049 12.7229 12.9754 12.9102 13.0901C13.0974 13.2049 13.5187 13.4775 13.8464 13.6961C14.1741 13.9146 14.5954 14.1858 14.7826 14.2989C14.9698 14.4119 15.2978 14.5921 15.5113 14.6993C15.7249 14.8064 16.0773 14.9533 16.2944 15.0256C16.5115 15.0979 16.8346 15.1826 17.0125 15.2138C17.2107 15.2485 17.5139 15.27 17.7955 15.2694C18.0594 15.2687 18.3638 15.2467 18.5104 15.2177C18.6509 15.1899 18.8694 15.128 18.996 15.0802C19.1226 15.0323 19.3295 14.9257 19.4556 14.8432C19.5818 14.7608 19.7727 14.603 19.88 14.4926C19.9873 14.3822 20.1144 14.2382 20.1625 14.1726C20.2106 14.107 20.3015 13.9612 20.3646 13.8485C20.4277 13.7358 20.5273 13.5224 20.5861 13.3743C20.6449 13.2262 20.737 12.9245 20.7908 12.7039C20.8446 12.4833 20.9137 12.0986 20.9443 11.849C20.9808 11.552 21 11.1303 21 10.6285C21 10.1838 20.9775 9.63266 20.9464 9.31644C20.9169 9.01655 20.8552 8.54116 20.8094 8.26001C20.7635 7.97887 20.6935 7.48814 20.6539 7.16951C20.6142 6.85087 20.5438 6.38315 20.4975 6.13012C20.4512 5.87708 20.3436 5.39515 20.2585 5.05917C20.1732 4.72319 20.0372 4.25458 19.9562 4.01784C19.8752 3.78106 19.7305 3.40422 19.6346 3.18039C19.5387 2.95653 19.3977 2.65838 19.3213 2.51781C19.2448 2.37724 19.0979 2.13187 18.9948 1.97255C18.8916 1.81324 18.7183 1.57387 18.6095 1.44059C18.5007 1.30734 18.3016 1.09626 18.167 0.971535C18.0324 0.846774 17.8181 0.675362 17.6906 0.590575C17.5632 0.505788 17.3412 0.381945 17.1972 0.315356C17.0533 0.248767 16.7881 0.155427 16.608 0.107922L16.2805 0.0216007L15.7869 0.0188073C15.4406 0.0168648 15.2018 0.0341754 14.9869 0.0768075C14.8183 0.110238 14.5119 0.192027 14.306 0.258548C14.1 0.325069 13.8166 0.444616 13.6762 0.524155C13.5357 0.603728 13.2676 0.745597 13.0804 0.839415C12.8932 0.933233 12.5875 1.0749 12.4011 1.1542C12.2147 1.2335 11.9082 1.34889 11.7199 1.4106C11.5317 1.47235 11.2169 1.55884 11.0205 1.60284L10.6633 1.68285L10.0675 1.68183L9.47172 1.68084L9.18235 1.60291C9.02319 1.56004 8.76276 1.4698 8.6036 1.40232C8.44444 1.33485 8.22997 1.2335 8.12698 1.1771C8.024 1.12073 7.73292 0.952044 7.48015 0.802235C7.22737 0.652461 6.88267 0.46462 6.71415 0.384809C6.54564 0.305031 6.31349 0.208215 6.19828 0.169741C6.08308 0.131232 5.85509 0.0763986 5.69167 0.047875C5.52826 0.0193514 5.25482 -0.00211673 5.08409 0.000166522C4.91336 0.00244977 4.68302 0.017546 4.5722 0.0337332Z"/>
</mask>
<path fill-rule="evenodd" clip-rule="evenodd" d="M4.5722 0.0337332C4.46142 0.0498864 4.28007 0.0863845 4.16919 0.11484C4.05831 0.143261 3.85786 0.210532 3.72372 0.264274C3.58956 0.31805 3.35833 0.43395 3.20986 0.521804C3.06136 0.609693 2.84692 0.755956 2.73331 0.846809C2.61971 0.937696 2.38794 1.15532 2.21826 1.33045C2.04862 1.50554 1.8401 1.74082 1.75489 1.85328C1.66967 1.96574 1.52185 2.17764 1.42639 2.32414C1.3309 2.47068 1.15401 2.78505 1.03325 3.02275C0.9125 3.26048 0.750858 3.61288 0.674054 3.8059C0.597251 3.99892 0.482488 4.32863 0.41903 4.53859C0.355572 4.74854 0.264402 5.09669 0.2164 5.31224C0.168432 5.52778 0.106779 5.88049 0.0794415 6.09604C0.0521041 6.31158 0.0194557 6.66429 0.00692746 6.87984C-0.00614547 7.10411 -0.000255883 7.4102 0.0207153 7.59549C0.0408694 7.77355 0.0807691 8.01124 0.109366 8.1237C0.137963 8.23616 0.224707 8.45852 0.302158 8.61784L0.442963 8.9075L0.701835 9.1637L0.960706 9.41991L1.21604 9.54473C1.35647 9.6134 1.56329 9.69386 1.67563 9.72355C1.78798 9.75323 2.02543 9.787 2.20331 9.79855C2.3877 9.81051 2.65358 9.80257 2.82183 9.78008C2.98412 9.75837 3.22157 9.71271 3.34951 9.67856C3.47745 9.64445 3.79154 9.53748 4.04751 9.4409C4.30349 9.34435 4.64819 9.23125 4.81351 9.18964L5.11408 9.11395L5.57368 9.11415L6.03327 9.11436L6.33967 9.22089C6.50819 9.2795 6.74564 9.34643 6.86735 9.36967C6.98906 9.39292 7.24184 9.4118 7.42908 9.41169C7.63317 9.41156 7.85814 9.3889 7.99081 9.35509C8.11251 9.32408 8.31933 9.2461 8.4504 9.1818C8.58147 9.11749 8.78958 8.98139 8.91289 8.87932C9.03616 8.77729 9.21694 8.58853 9.31458 8.45985C9.41221 8.3312 9.57944 8.04958 9.68617 7.83403L9.88025 7.44213L9.8919 7.16951L9.9035 6.89688L9.82983 6.80316C9.78932 6.7516 9.72566 6.70945 9.68838 6.70945C9.65076 6.70945 9.50424 6.82027 9.35894 6.95866C9.215 7.09573 8.98612 7.27389 8.85028 7.35452C8.71445 7.43518 8.47699 7.54519 8.3226 7.599L8.04187 7.6968L7.7525 7.69694L7.46312 7.69704L7.29267 7.6176C7.19891 7.57388 7.07499 7.48432 7.01728 7.41852C6.95958 7.35275 6.87876 7.22942 6.83767 7.14443C6.79657 7.05943 6.75388 6.91348 6.74285 6.82007C6.7293 6.70567 6.74091 6.59586 6.77833 6.48388C6.8089 6.39238 6.88819 6.24918 6.95454 6.16566C7.02089 6.08213 7.15264 5.9555 7.24732 5.88431C7.34196 5.81312 7.68203 5.62613 8.00299 5.46879C8.38214 5.28293 8.63131 5.13837 8.71424 5.05617C8.78448 4.98655 8.84191 4.90176 8.84191 4.86775C8.84191 4.83374 8.81798 4.78198 8.78877 4.75274C8.75952 4.72346 8.63315 4.66853 8.5079 4.63067C8.38265 4.59277 8.17294 4.53831 8.04187 4.50962C7.9108 4.48089 7.61973 4.44849 7.39504 4.43761L6.98651 4.41782L6.71415 4.47002C6.56436 4.49872 6.35288 4.55569 6.24421 4.59662C6.13554 4.63752 5.93243 4.74749 5.79285 4.84093C5.65324 4.93441 5.4678 5.09785 5.38072 5.20414C5.29363 5.31046 5.1627 5.52778 5.08974 5.6871C5.01678 5.84641 4.89286 6.10698 4.81436 6.26609C4.73589 6.42523 4.58987 6.6706 4.48988 6.81134C4.3899 6.95212 4.19836 7.17973 4.06427 7.3172C3.93013 7.45467 3.72614 7.63515 3.6109 7.71827C3.4957 7.80139 3.29899 7.91589 3.17377 7.97273C3.04655 8.03049 2.83116 8.09249 2.68538 8.11334L2.4246 8.15062L2.2268 8.10878C2.09934 8.08179 1.98887 8.03165 1.91619 7.96776C1.85416 7.91323 1.76946 7.78966 1.72799 7.69315C1.67662 7.57364 1.64669 7.41869 1.63417 7.2073C1.62402 7.03657 1.63406 6.75944 1.65643 6.59143C1.6788 6.42346 1.74869 6.08455 1.81174 5.83834C1.87479 5.59209 2.00722 5.17746 2.10602 4.91693C2.20481 4.6564 2.41674 4.18254 2.57691 3.8639C2.73709 3.54527 2.9675 3.12611 3.08894 2.93241C3.21037 2.7387 3.38944 2.48312 3.48684 2.36446C3.58424 2.24579 3.76464 2.0768 3.88771 1.98888C4.01078 1.90099 4.18737 1.80019 4.2801 1.76491C4.37284 1.72964 4.55505 1.68425 4.68503 1.66408L4.92133 1.62737L5.18486 1.66408C5.32979 1.68425 5.60517 1.75326 5.7968 1.81746C5.98844 1.88167 6.28445 2.00418 6.45464 2.08972C6.62482 2.17529 7.02093 2.38889 7.33488 2.56439C7.64883 2.7399 8.01566 2.93166 8.15006 2.99048C8.28447 3.04933 8.53725 3.13507 8.71179 3.18104C8.88634 3.22701 9.19767 3.28243 9.40364 3.30417C9.62676 3.32772 9.92206 3.33409 10.1342 3.31991C10.3301 3.30679 10.6365 3.27414 10.8151 3.24729C10.9937 3.22044 11.3436 3.14485 11.5925 3.07928C11.8415 3.01375 12.2375 2.89029 12.4727 2.80495C12.7079 2.71962 13.0787 2.57216 13.2967 2.47729C13.5148 2.38238 13.8847 2.20896 14.1187 2.0919C14.3528 1.97484 14.6515 1.84047 14.7826 1.7933C14.9137 1.74617 15.1401 1.68834 15.2858 1.66483C15.432 1.64124 15.6622 1.63054 15.7996 1.64094C15.9366 1.6513 16.1571 1.69754 16.2897 1.74372C16.4223 1.78989 16.6378 1.89881 16.7684 1.98578C16.8991 2.07271 17.0918 2.23663 17.1967 2.35001C17.3016 2.46342 17.4489 2.64697 17.5242 2.75793C17.5995 2.86885 17.7297 3.09591 17.8136 3.26242C17.8975 3.42896 18.0256 3.74742 18.0982 3.97013C18.1708 4.19286 18.3156 4.70479 18.4199 5.10776C18.5242 5.51074 18.6788 6.15482 18.7634 6.53906C18.8481 6.92329 18.9702 7.5367 19.0347 7.90219C19.0992 8.26768 19.1838 8.81686 19.2227 9.12261C19.2616 9.42836 19.3115 9.9761 19.3336 10.3399L19.3737 11.0012L19.3335 11.522C19.3114 11.8084 19.2707 12.1487 19.243 12.2783C19.2152 12.4078 19.1466 12.6122 19.0904 12.7324C19.024 12.8745 18.9136 13.0256 18.7748 13.1642C18.6358 13.3032 18.4843 13.4138 18.3402 13.4814C18.2185 13.5386 18.0359 13.6046 17.9345 13.6281C17.8153 13.6558 17.6407 13.6637 17.4409 13.6503C17.2708 13.6389 17.0104 13.5984 16.8622 13.5603C16.7141 13.5222 16.4349 13.4155 16.2418 13.3231C16.0488 13.2308 15.5266 12.919 15.0814 12.6302C14.6362 12.3414 14.18 12.0502 14.0677 11.983C13.9553 11.9158 13.6719 11.7586 13.4379 11.6337C13.2038 11.5087 12.8591 11.3403 12.6719 11.2593C12.4846 11.1783 12.1859 11.066 12.008 11.0096C11.8301 10.9532 11.5697 10.8835 11.4293 10.8548C11.2888 10.826 11.0441 10.7863 10.8854 10.7666C10.7268 10.7468 10.4506 10.7307 10.2718 10.7307C10.0929 10.7307 9.81673 10.7464 9.65808 10.7656C9.4994 10.7848 9.20873 10.8403 9.01213 10.8889C8.81553 10.9374 8.52162 11.0345 8.35903 11.1047C8.18288 11.1807 7.79761 11.411 7.40579 11.6746C7.04411 11.918 6.57202 12.2244 6.35669 12.3556C6.14136 12.4867 5.77648 12.6978 5.54586 12.8247C5.31525 12.9516 4.94495 13.1369 4.72298 13.2367C4.50105 13.3364 4.16885 13.4675 3.98481 13.528L3.65019 13.638L3.32677 13.6407L3.00335 13.6434L2.79187 13.5461C2.65317 13.4823 2.51785 13.3828 2.39856 13.257C2.29854 13.1514 2.16907 12.9807 2.11088 12.8776C2.0527 12.7745 1.95837 12.5522 1.90128 12.3835C1.84418 12.2148 1.74886 11.8887 1.68949 11.6588C1.62327 11.4025 1.54041 11.173 1.47535 11.0656C1.41414 10.9645 1.31882 10.8629 1.25008 10.8253L1.13093 10.7603L0.839168 10.7727L0.54741 10.7852L0.390332 10.8773C0.303894 10.928 0.203906 11.0116 0.168091 11.0631C0.132277 11.1146 0.0853312 11.2088 0.0637472 11.2725C0.0421633 11.3362 0.0244939 11.5151 0.0244939 11.6699C0.0244939 11.8248 0.0460097 12.064 0.0723258 12.2016C0.0986078 12.3391 0.153078 12.5513 0.193352 12.6732C0.233626 12.795 0.341002 13.048 0.432001 13.2355C0.523001 13.4229 0.704116 13.7373 0.834504 13.9341C0.964893 14.1309 1.15387 14.3695 1.25447 14.4643C1.35504 14.5591 1.55828 14.7183 1.70613 14.818C1.85395 14.9177 2.06932 15.0421 2.18469 15.0945C2.3001 15.1468 2.48775 15.2139 2.6017 15.2435C2.72354 15.275 2.94973 15.2972 3.15073 15.2972C3.33872 15.2972 3.60242 15.2741 3.73676 15.2458C3.87107 15.2175 4.09804 15.1543 4.24112 15.1054C4.38421 15.0565 4.68288 14.9347 4.90485 14.8348C5.12682 14.7349 5.57589 14.506 5.90282 14.3262C6.22977 14.1463 6.98147 13.7139 7.57332 13.3652C8.16515 13.0164 8.78846 12.6705 8.95841 12.5963C9.12839 12.5222 9.413 12.4237 9.59088 12.3776C9.79844 12.3237 10.0545 12.2869 10.3058 12.2749L10.6973 12.2563L11.0174 12.3123C11.1934 12.343 11.4538 12.4071 11.5961 12.4546C11.7384 12.5021 12.0157 12.6176 12.2123 12.7113C12.4089 12.8049 12.7229 12.9754 12.9102 13.0901C13.0974 13.2049 13.5187 13.4775 13.8464 13.6961C14.1741 13.9146 14.5954 14.1858 14.7826 14.2989C14.9698 14.4119 15.2978 14.5921 15.5113 14.6993C15.7249 14.8064 16.0773 14.9533 16.2944 15.0256C16.5115 15.0979 16.8346 15.1826 17.0125 15.2138C17.2107 15.2485 17.5139 15.27 17.7955 15.2694C18.0594 15.2687 18.3638 15.2467 18.5104 15.2177C18.6509 15.1899 18.8694 15.128 18.996 15.0802C19.1226 15.0323 19.3295 14.9257 19.4556 14.8432C19.5818 14.7608 19.7727 14.603 19.88 14.4926C19.9873 14.3822 20.1144 14.2382 20.1625 14.1726C20.2106 14.107 20.3015 13.9612 20.3646 13.8485C20.4277 13.7358 20.5273 13.5224 20.5861 13.3743C20.6449 13.2262 20.737 12.9245 20.7908 12.7039C20.8446 12.4833 20.9137 12.0986 20.9443 11.849C20.9808 11.552 21 11.1303 21 10.6285C21 10.1838 20.9775 9.63266 20.9464 9.31644C20.9169 9.01655 20.8552 8.54116 20.8094 8.26001C20.7635 7.97887 20.6935 7.48814 20.6539 7.16951C20.6142 6.85087 20.5438 6.38315 20.4975 6.13012C20.4512 5.87708 20.3436 5.39515 20.2585 5.05917C20.1732 4.72319 20.0372 4.25458 19.9562 4.01784C19.8752 3.78106 19.7305 3.40422 19.6346 3.18039C19.5387 2.95653 19.3977 2.65838 19.3213 2.51781C19.2448 2.37724 19.0979 2.13187 18.9948 1.97255C18.8916 1.81324 18.7183 1.57387 18.6095 1.44059C18.5007 1.30734 18.3016 1.09626 18.167 0.971535C18.0324 0.846774 17.8181 0.675362 17.6906 0.590575C17.5632 0.505788 17.3412 0.381945 17.1972 0.315356C17.0533 0.248767 16.7881 0.155427 16.608 0.107922L16.2805 0.0216007L15.7869 0.0188073C15.4406 0.0168648 15.2018 0.0341754 14.9869 0.0768075C14.8183 0.110238 14.5119 0.192027 14.306 0.258548C14.1 0.325069 13.8166 0.444616 13.6762 0.524155C13.5357 0.603728 13.2676 0.745597 13.0804 0.839415C12.8932 0.933233 12.5875 1.0749 12.4011 1.1542C12.2147 1.2335 11.9082 1.34889 11.7199 1.4106C11.5317 1.47235 11.2169 1.55884 11.0205 1.60284L10.6633 1.68285L10.0675 1.68183L9.47172 1.68084L9.18235 1.60291C9.02319 1.56004 8.76276 1.4698 8.6036 1.40232C8.44444 1.33485 8.22997 1.2335 8.12698 1.1771C8.024 1.12073 7.73292 0.952044 7.48015 0.802235C7.22737 0.652461 6.88267 0.46462 6.71415 0.384809C6.54564 0.305031 6.31349 0.208215 6.19828 0.169741C6.08308 0.131232 5.85509 0.0763986 5.69167 0.047875C5.52826 0.0193514 5.25482 -0.00211673 5.08409 0.000166522C4.91336 0.00244977 4.68302 0.017546 4.5722 0.0337332Z" fill="#5F6C72" stroke="#5F6C72" stroke-width="0.4" mask="url(#path-2-inside-1_1257_4860)"/>
</svg>
