<svg width="29" height="30" viewBox="0 0 29 30" fill="none" xmlns="http://www.w3.org/2000/svg">
<path fill-rule="evenodd" clip-rule="evenodd" d="M20.2158 21.4554C19.9719 21.4554 19.738 21.5527 19.5655 21.726C19.3931 21.8993 19.2962 22.1344 19.2962 22.3795V24.8438C19.2962 24.9255 19.2639 25.0038 19.2064 25.0616C19.1489 25.1193 19.071 25.1518 18.9897 25.1518H6.72868C6.64749 25.1515 6.56971 25.1189 6.51229 25.0612C6.45488 25.0035 6.42248 24.9254 6.42216 24.8438V5.12951C6.42248 5.04792 6.45488 4.96975 6.51229 4.91206C6.56971 4.85436 6.64749 4.8218 6.72868 4.82148H18.9897C19.071 4.82148 19.1489 4.85393 19.2064 4.9117C19.2639 4.96947 19.2962 5.04782 19.2962 5.12951V7.59379C19.2962 7.83888 19.3931 8.07393 19.5655 8.24723C19.738 8.42054 19.9719 8.5179 20.2158 8.5179C20.4597 8.5179 20.6936 8.42054 20.866 8.24723C21.0385 8.07393 21.1354 7.83888 21.1354 7.59379V5.12951C21.1354 4.55764 20.9093 4.00919 20.5069 3.60482C20.1045 3.20044 19.5588 2.97327 18.9897 2.97327H6.72868C6.15971 2.97359 5.61414 3.20087 5.21182 3.60518C4.8095 4.00948 4.58333 4.55774 4.58301 5.12951V24.8438C4.58333 25.4155 4.8095 25.9638 5.21182 26.3681C5.61414 26.7724 6.15971 26.9997 6.72868 27H18.9897C19.5588 27 20.1045 26.7728 20.5069 26.3685C20.9093 25.9641 21.1354 25.4156 21.1354 24.8438V22.3795C21.1354 22.1344 21.0385 21.8993 20.866 21.726C20.6936 21.5527 20.4597 21.4554 20.2158 21.4554Z" fill="black"/>
<path fill-rule="evenodd" clip-rule="evenodd" d="M15.6275 10.6371C15.8024 10.4772 16.0319 10.3912 16.2682 10.3969C16.5046 10.4025 16.7297 10.4995 16.8968 10.6676C17.0639 10.8357 17.1602 11.062 17.1656 11.2995C17.171 11.5371 17.0852 11.7676 16.9259 11.9432L14.817 14.0625H26.7875C27.0313 14.0625 27.2652 14.1598 27.4377 14.3332C27.6101 14.5065 27.707 14.7415 27.707 14.9866C27.707 15.2317 27.6101 15.4667 27.4377 15.64C27.2652 15.8133 27.0313 15.9107 26.7875 15.9107H14.8195L16.9259 18.03C17.0114 18.1158 17.0791 18.2177 17.1253 18.3299C17.1716 18.442 17.1954 18.5622 17.1954 18.6836C17.1954 18.805 17.1716 18.9252 17.1253 19.0374C17.0791 19.1495 17.0114 19.2514 16.9259 19.3373C16.8405 19.4231 16.7391 19.4912 16.6275 19.5377C16.5159 19.5841 16.3963 19.608 16.2755 19.608C16.1547 19.608 16.0351 19.5841 15.9235 19.5377C15.8119 19.4912 15.7105 19.4231 15.625 19.3373L11.9467 15.6409C11.8613 15.555 11.7935 15.4531 11.7472 15.341C11.701 15.2288 11.6772 15.1086 11.6772 14.9872C11.6772 14.8658 11.701 14.7456 11.7472 14.6334C11.7935 14.5213 11.8613 14.4194 11.9467 14.3336L15.6275 10.6371Z" fill="black"/>
</svg>
