<svg width="143" height="51" viewBox="0 0 143 51" fill="none" xmlns="http://www.w3.org/2000/svg">
<g clip-path="url(#clip0_1422_3927)">
<path fill-rule="evenodd" clip-rule="evenodd" d="M34.8097 16.3397C34.5555 16.4117 34.2293 16.5453 34.0847 16.6364C33.9402 16.7276 33.68 16.9508 33.5065 17.1323C33.3331 17.3139 33.0894 17.6889 32.965 17.9655L32.7388 18.4684L32.7695 19.1778L32.8002 19.8871L33.006 20.3134C33.1192 20.5478 33.3626 20.8927 33.5469 21.0799C33.7312 21.267 34.0988 21.5232 34.3637 21.6493L34.8454 21.8785L35.5277 21.8773L36.21 21.8761L36.6365 21.6784C36.871 21.5697 37.2292 21.3169 37.4326 21.1168C37.6359 20.9167 37.9012 20.5581 38.0223 20.32L38.2422 19.8871L38.2793 19.2376L38.3163 18.5882L38.1328 18.0945C38.0319 17.8229 37.7806 17.4103 37.5744 17.1775C37.3346 16.9066 37.0195 16.6721 36.7001 16.5265C36.4255 16.4014 35.9918 16.2787 35.7363 16.254C35.4491 16.226 35.0956 16.2587 34.8097 16.3397ZM29.5761 21.665C29.3986 21.7102 29.1351 21.8093 28.9906 21.8852C28.846 21.9611 28.5559 22.184 28.346 22.3805C28.1361 22.5769 27.8656 22.934 27.7448 23.1741L27.5253 23.6105L27.4882 24.2599L27.4512 24.9094L27.644 25.4283L27.8368 25.9471L28.3142 26.4319L28.7916 26.9165L29.2598 27.0784C29.5173 27.1674 29.9583 27.2402 30.2398 27.2402C30.5212 27.2402 30.9519 27.1708 31.1967 27.0861C31.4568 26.9961 31.8224 26.7673 32.0757 26.5361C32.3142 26.3184 32.6123 25.9413 32.738 25.698L32.9665 25.2557L32.9678 24.4331L32.969 23.6105L32.7719 23.2041C32.6635 22.9806 32.42 22.6358 32.2308 22.438C32.0416 22.24 31.675 21.9796 31.4164 21.8594C31.1224 21.7227 30.7494 21.6298 30.4222 21.6117C30.1343 21.5958 29.7535 21.6198 29.5761 21.665ZM40.0481 21.6601C39.9073 21.6968 39.6962 21.7669 39.579 21.8158C39.4617 21.8647 39.206 22.0233 39.0107 22.1682C38.8155 22.3131 38.5404 22.6018 38.3995 22.8097C38.2586 23.0176 38.0779 23.4163 37.9979 23.6957C37.8994 24.0395 37.868 24.3573 37.9007 24.6792C37.9281 24.948 38.0631 25.39 38.2114 25.6958C38.3557 25.9933 38.6151 26.3627 38.7879 26.5167C38.9607 26.6708 39.3149 26.8968 39.575 27.0191L40.0481 27.2412H40.6877H41.3274L41.8004 27.0191C42.0605 26.8968 42.4148 26.6708 42.5876 26.5167C42.7603 26.3627 43.0159 25.9965 43.1553 25.7029C43.2948 25.4093 43.4335 24.9887 43.4637 24.7681C43.4939 24.5476 43.4749 24.1534 43.4214 23.8922C43.368 23.6309 43.2013 23.2087 43.0508 22.9539C42.9004 22.6992 42.5893 22.3469 42.3596 22.1709C42.1299 21.995 41.7243 21.789 41.4585 21.7133C41.1926 21.6376 40.824 21.5796 40.6395 21.5844C40.4549 21.5894 40.1888 21.6234 40.0481 21.6601ZM34.8654 26.7734C34.6887 26.8185 34.3989 26.9307 34.2213 27.0228C34.0438 27.1147 33.7397 27.3511 33.5457 27.5481C33.3517 27.7451 33.1041 28.0892 32.9957 28.3128L32.7985 28.7194V29.542V30.3646L32.9957 30.7711C33.1041 30.9947 33.3536 31.3418 33.5501 31.5423C33.7465 31.7428 34.1183 32.0069 34.3763 32.1292L34.8454 32.3513L35.5277 32.3498L36.21 32.3482L36.6899 32.1129C36.9538 31.9834 37.3416 31.691 37.5516 31.463C37.7776 31.2179 38.0083 30.8457 38.1166 30.5518C38.2282 30.249 38.2996 29.8547 38.2996 29.542C38.2996 29.2293 38.2282 28.835 38.1166 28.5322C38.0083 28.2383 37.7776 27.8661 37.5516 27.6209C37.3416 27.393 36.9626 27.1069 36.7093 26.9853C36.4242 26.8484 36.0467 26.7503 35.7178 26.7278C35.4256 26.7077 35.0421 26.7282 34.8654 26.7734Z" fill="#FCBC4B"/>
<path fill-rule="evenodd" clip-rule="evenodd" d="M118.611 6.71795C118.43 6.78619 118.166 6.95236 118.025 7.08709C117.884 7.22183 117.715 7.45744 117.651 7.61071C117.586 7.76398 117.533 8.0867 117.533 8.32786C117.533 8.56901 117.586 8.89174 117.651 9.045C117.715 9.19827 117.886 9.43596 118.03 9.57312C118.177 9.71349 118.483 9.87333 118.731 9.93845L119.17 10.0542L119.595 9.96175C119.856 9.90503 120.138 9.76414 120.325 9.5978C120.492 9.44852 120.681 9.20035 120.744 9.04639C120.808 8.89234 120.86 8.56313 120.86 8.3147C120.86 8.0331 120.792 7.7218 120.681 7.48809C120.561 7.23637 120.382 7.04137 120.135 6.89486C119.934 6.77476 119.582 6.65795 119.354 6.63517C119.106 6.61024 118.809 6.64323 118.611 6.71795ZM63.9717 8.19797V9.71331H67.2127H70.4537L70.4527 12.6791L70.4516 15.6448L70.3321 16.1006C70.2664 16.3513 70.1148 16.7259 69.9953 16.933C69.8757 17.1402 69.6345 17.4374 69.4591 17.5937C69.2838 17.75 68.9849 17.9475 68.7949 18.0326C68.6049 18.1178 68.1881 18.2334 67.8687 18.2896L67.288 18.392L66.632 18.294C66.2712 18.24 65.7755 18.0969 65.5304 17.9758C65.2853 17.8548 64.9499 17.5956 64.7849 17.3998C64.6198 17.2041 64.4067 16.8321 64.3112 16.5731C64.2158 16.3141 64.1141 15.8726 64.0852 15.5921L64.0327 15.082H62.467H60.9013L60.9018 15.4067C60.9021 15.5853 60.9584 16.1094 61.027 16.5712C61.0956 17.0331 61.2675 17.715 61.4091 18.0866C61.5554 18.4702 61.8605 19.0223 62.1155 19.3643C62.4083 19.7569 62.7684 20.1071 63.1506 20.3704C63.473 20.5926 64.0295 20.8749 64.3873 20.9977C64.7451 21.1205 65.2681 21.2685 65.5496 21.3265C65.831 21.3846 66.5794 21.4305 67.2127 21.4285C67.9539 21.4262 68.5879 21.3745 68.9923 21.2832C69.3379 21.2053 69.8836 21.0293 70.2051 20.8922C70.5264 20.7551 71.0389 20.4622 71.3437 20.2413C71.6486 20.0205 72.0778 19.6168 72.2974 19.3442C72.5171 19.0717 72.8462 18.5338 73.0289 18.149C73.2252 17.7353 73.4287 17.1159 73.5267 16.6337L73.6925 15.818L73.6936 11.2503L73.6947 6.68262H68.8332H63.9717V8.19797ZM133.456 6.7383C133.424 6.77121 133.397 10.0257 133.397 13.9707V21.1433H134.888H136.379L136.402 18.9899L136.425 16.8366L138.088 18.9868L139.751 21.137L141.521 21.1401L143.291 21.1433V20.9854C143.291 20.8986 142.35 19.6846 141.2 18.2877L139.109 15.748L139.227 15.6098C139.292 15.5338 140.118 14.5044 141.062 13.3222C142.006 12.14 142.779 11.1172 142.779 11.0492V10.9256H141.035H139.291L137.858 12.8459L136.425 14.7663L136.382 10.7461L136.34 6.72592L134.927 6.70228C134.15 6.6892 133.488 6.70548 133.456 6.7383ZM11.3979 6.86507C11.1204 6.90612 10.6661 6.99885 10.3883 7.07116C10.1105 7.14338 9.6083 7.31431 9.27226 7.45086C8.93613 7.5875 8.35685 7.882 7.9849 8.10523C7.61287 8.32855 7.07563 8.7002 6.79102 8.93105C6.50641 9.16199 5.92576 9.71496 5.50068 10.16C5.07568 10.6049 4.55329 11.2027 4.33981 11.4884C4.12633 11.7742 3.756 12.3126 3.51685 12.6849C3.27761 13.0572 2.83445 13.856 2.53193 14.46C2.22941 15.064 1.82445 15.9595 1.63204 16.4499C1.43963 16.9404 1.15212 17.7782 0.99314 18.3116C0.834161 18.8451 0.605756 19.7297 0.485498 20.2774C0.365326 20.8251 0.210868 21.7213 0.142381 22.269C0.0738938 22.8167 -0.00789907 23.7129 -0.0392855 24.2606C-0.0720366 24.8305 -0.0572817 25.6082 -0.00474347 26.079C0.0457478 26.5315 0.145707 27.1355 0.21735 27.4212C0.288993 27.707 0.50631 28.272 0.700343 28.6768L1.0531 29.4128L1.70164 30.0638L2.35018 30.7148L2.98985 31.032C3.34167 31.2064 3.8598 31.4109 4.14125 31.4863C4.42271 31.5617 5.0176 31.6475 5.46324 31.6769C5.92516 31.7073 6.59127 31.6871 7.01277 31.63C7.41935 31.5748 8.01424 31.4588 8.33476 31.372C8.65528 31.2853 9.44215 31.0135 10.0834 30.7681C10.7247 30.5228 11.5883 30.2354 12.0025 30.1297L12.7555 29.9374L13.9069 29.9379L15.0583 29.9384L15.8259 30.2091C16.2481 30.358 16.843 30.5281 17.1479 30.5872C17.4528 30.6462 18.0861 30.6942 18.5551 30.6939C19.0665 30.6936 19.63 30.636 19.9624 30.5501C20.2673 30.4713 20.7855 30.2732 21.1138 30.1098C21.4422 29.9464 21.9636 29.6005 22.2725 29.3412C22.5813 29.0819 23.0342 28.6023 23.2788 28.2753C23.5234 27.9485 23.9424 27.2329 24.2097 26.6852L24.696 25.6894L24.7251 24.9967L24.7542 24.3039L24.5697 24.0658C24.4682 23.9348 24.3087 23.8277 24.2153 23.8277C24.121 23.8277 23.754 24.1093 23.3899 24.4609C23.0293 24.8092 22.4559 25.2619 22.1156 25.4668C21.7753 25.6717 21.1804 25.9512 20.7936 26.088L20.0904 26.3365L19.3654 26.3368L18.6404 26.3371L18.2134 26.1352C17.9785 26.0241 17.6681 25.7966 17.5235 25.6294C17.3789 25.4623 17.1764 25.1489 17.0735 24.9329C16.9706 24.717 16.8636 24.3461 16.836 24.1087C16.802 23.8181 16.8311 23.5391 16.9248 23.2545C17.0014 23.022 17.2001 22.6582 17.3663 22.4459C17.5325 22.2337 17.8626 21.9119 18.0998 21.731C18.3369 21.5501 19.1888 21.075 19.993 20.6752C20.9428 20.203 21.5671 19.8356 21.7748 19.6268C21.9508 19.4499 22.0947 19.2344 22.0947 19.148C22.0947 19.0616 22.0347 18.9301 21.9615 18.8558C21.8883 18.7814 21.5717 18.6418 21.2579 18.5456C20.9441 18.4493 20.4187 18.3109 20.0904 18.238C19.762 18.165 19.0328 18.0827 18.4699 18.0551L17.4464 18.0048L16.7641 18.1374C16.3888 18.2103 15.859 18.3551 15.5867 18.4591C15.3145 18.563 14.8057 18.8424 14.456 19.0799C14.1062 19.3174 13.6416 19.7327 13.4235 20.0028C13.2053 20.2729 12.8773 20.8251 12.6945 21.2299C12.5117 21.6348 12.2013 22.2968 12.0046 22.7011C11.808 23.1055 11.4422 23.729 11.1917 24.0866C10.9412 24.4443 10.4614 25.0226 10.1254 25.3719C9.78937 25.7212 9.27831 26.1798 8.98961 26.391C8.70099 26.6022 8.20819 26.8932 7.8945 27.0376C7.57577 27.1844 7.03614 27.3419 6.67093 27.3949L6.01762 27.4896L5.52209 27.3833C5.20276 27.3147 4.926 27.1873 4.74391 27.025C4.58851 26.8864 4.37631 26.5724 4.27243 26.3272C4.14373 26.0235 4.06876 25.6298 4.03737 25.0927C4.01196 24.6589 4.03712 23.9547 4.09315 23.5278C4.14919 23.101 4.32428 22.2398 4.48224 21.6142C4.64019 20.9885 4.97197 19.935 5.21948 19.273C5.46699 18.611 5.99792 17.4069 6.3992 16.5973C6.80049 15.7877 7.37773 14.7226 7.68195 14.2304C7.98618 13.7382 8.4348 13.0888 8.67881 12.7873C8.92283 12.4858 9.37477 12.0564 9.6831 11.833C9.99142 11.6097 10.4338 11.3535 10.6661 11.2639C10.8985 11.1743 11.3549 11.0589 11.6806 11.0077L12.2726 10.9144L12.9328 11.0077C13.2959 11.0589 13.9858 11.2343 14.4659 11.3974C14.946 11.5606 15.6876 11.8719 16.1139 12.0892C16.5403 12.3066 17.5326 12.8494 18.3192 13.2953C19.1057 13.7413 20.0247 14.2285 20.3614 14.378C20.6981 14.5275 21.3314 14.7454 21.7687 14.8622C22.206 14.979 22.9859 15.1198 23.5019 15.1751C24.0609 15.2349 24.8007 15.2511 25.3322 15.2151C25.8229 15.1817 26.5905 15.0988 27.038 15.0305C27.4855 14.9623 28.362 14.7702 28.9856 14.6036C29.6093 14.4371 30.6016 14.1234 31.1908 13.9066C31.7799 13.6898 32.7089 13.3151 33.2552 13.074C33.8015 12.8328 34.7281 12.3922 35.3145 12.0947C35.9009 11.7973 36.6493 11.4559 36.9776 11.336C37.306 11.2163 37.8733 11.0693 38.2382 11.0096C38.6045 10.9497 39.1812 10.9225 39.5256 10.9489C39.8686 10.9752 40.4211 11.0927 40.7534 11.21C41.0856 11.3274 41.6253 11.6041 41.9526 11.8251C42.28 12.046 42.7628 12.4625 43.0255 12.7506C43.2883 13.0388 43.6575 13.5051 43.8461 13.7871C44.0346 14.0689 44.3609 14.6459 44.5711 15.069C44.7813 15.4921 45.1021 16.3013 45.284 16.8672C45.466 17.4332 45.8286 18.7339 46.0899 19.7579C46.3513 20.7818 46.7386 22.4184 46.9507 23.3947C47.1627 24.371 47.4686 25.9297 47.6302 26.8584C47.7919 27.7871 48.0039 29.1825 48.1013 29.9594C48.1987 30.7363 48.3237 32.128 48.379 33.0523L48.4795 34.7328L48.3789 36.056C48.3236 36.7838 48.2215 37.6486 48.152 37.9777C48.0826 38.3069 47.9105 38.8262 47.7698 39.1316C47.6034 39.4926 47.3268 39.8766 46.9793 40.2289C46.631 40.5819 46.2515 40.8629 45.8904 41.0348C45.5855 41.18 45.1281 41.3477 44.874 41.4076C44.5753 41.478 44.138 41.4979 43.6373 41.4639C43.2112 41.4351 42.5589 41.3322 42.1877 41.2353C41.8164 41.1385 41.1171 40.8672 40.6334 40.6327C40.1498 40.3981 38.8415 39.6059 37.7262 38.872C36.6108 38.1382 35.468 37.3982 35.1866 37.2275C34.9051 37.0568 34.1951 36.6574 33.6087 36.3399C33.0223 36.0224 32.1588 35.5943 31.6897 35.3885C31.2206 35.1828 30.4722 34.8973 30.0266 34.7541C29.5809 34.6109 28.9285 34.4338 28.5766 34.3607C28.2248 34.2876 27.6118 34.1867 27.2142 34.1366C26.8168 34.0865 26.1249 34.0454 25.6768 34.0454C25.2287 34.0454 24.5368 34.0853 24.1394 34.1342C23.7418 34.183 23.0136 34.3239 22.5211 34.4473C22.0286 34.5706 21.2922 34.8174 20.8849 34.9957C20.4436 35.1888 19.4784 35.7741 18.4968 36.4439C17.5907 37.0622 16.408 37.8408 15.8685 38.1741C15.3291 38.5074 14.4149 39.0438 13.8372 39.3661C13.2594 39.6885 12.3318 40.1595 11.7757 40.4129C11.2197 40.6663 10.3874 40.9994 9.92634 41.1532L9.08803 41.4328L8.27779 41.4396L7.46754 41.4465L6.93772 41.1993C6.59025 41.0371 6.25122 40.7843 5.95237 40.4645C5.70179 40.1963 5.37744 39.7626 5.23168 39.5007C5.08592 39.2387 4.84958 38.6737 4.70655 38.2451C4.56352 37.8165 4.32471 36.9878 4.17597 36.4037C4.01008 35.7525 3.80249 35.1692 3.6395 34.8964C3.48615 34.6396 3.24734 34.3812 3.07514 34.2859L2.77663 34.1207L2.0457 34.1523L1.31477 34.1839L0.921242 34.418C0.704692 34.5469 0.454197 34.7592 0.364472 34.89C0.274748 35.0208 0.157136 35.2603 0.103063 35.4221C0.0489894 35.5841 0.004723 36.0385 0.004723 36.432C0.004723 36.8255 0.0586257 37.4334 0.124554 37.7829C0.190398 38.1324 0.32686 38.6716 0.427757 38.9811C0.528654 39.2907 0.797658 39.9336 1.02564 40.4099C1.25361 40.8861 1.70735 41.6849 2.03401 42.185C2.36067 42.6851 2.83411 43.2914 3.08614 43.5323C3.33808 43.7732 3.84726 44.1776 4.21767 44.431C4.588 44.6844 5.12754 45.0005 5.41658 45.1336C5.70572 45.2666 6.17583 45.4369 6.46129 45.5121C6.76654 45.5924 7.33321 45.6486 7.83675 45.6486C8.30772 45.6486 8.96837 45.5898 9.30492 45.518C9.64139 45.4461 10.21 45.2856 10.5685 45.1613C10.927 45.037 11.6752 44.7276 12.2313 44.4738C12.7874 44.2199 13.9124 43.6383 14.7315 43.1813C15.5506 42.7243 17.4338 41.6254 18.9165 40.7394C20.3992 39.8534 21.9607 38.9743 22.3865 38.7859C22.8124 38.5975 23.5254 38.3474 23.971 38.23C24.491 38.093 25.1326 37.9996 25.7621 37.9692L26.7429 37.9219L27.5447 38.0641C27.9858 38.1423 28.6382 38.3051 28.9946 38.4257C29.3512 38.5464 30.0457 38.8399 30.5383 39.0779C31.0308 39.3159 31.8176 39.7491 32.2867 40.0406C32.7558 40.3321 33.8113 41.0249 34.6322 41.5802C35.4531 42.1355 36.5085 42.8247 36.9776 43.1119C37.4467 43.3992 38.2683 43.857 38.8033 44.1293C39.3384 44.4016 40.2211 44.7749 40.765 44.9585C41.3089 45.1423 42.1184 45.3573 42.5641 45.4367C43.0606 45.525 43.8201 45.5796 44.5257 45.5779C45.187 45.5762 45.9495 45.5203 46.3168 45.4465C46.6686 45.3759 47.2161 45.2186 47.5333 45.0971C47.8506 44.9757 48.3687 44.7047 48.6847 44.4952C49.0008 44.2856 49.4793 43.8847 49.748 43.6041C50.0168 43.3237 50.3353 42.9578 50.4557 42.7911C50.5762 42.6244 50.804 42.2538 50.962 41.9675C51.12 41.6812 51.3697 41.139 51.517 40.7626C51.6642 40.3863 51.895 39.6197 52.0298 39.0592C52.1646 38.4987 52.3376 37.5213 52.4144 36.887C52.5057 36.1324 52.5538 35.0609 52.5538 33.7857C52.5538 32.6557 52.4975 31.2554 52.4195 30.4519C52.3456 29.6899 52.1911 28.4819 52.0762 27.7676C51.9613 27.0532 51.7861 25.8063 51.6867 24.9967C51.5873 24.187 51.4111 22.9986 51.2951 22.3556C51.1791 21.7127 50.9095 20.4881 50.6961 19.6344C50.4826 18.7807 50.1419 17.59 49.9389 16.9884C49.736 16.3868 49.3733 15.4293 49.1332 14.8606C48.8929 14.2917 48.5396 13.5341 48.3481 13.177C48.1566 12.8198 47.7886 12.1963 47.5302 11.7915C47.2719 11.3867 46.8375 10.7785 46.565 10.4398C46.2925 10.1012 45.7937 9.56489 45.4565 9.24797C45.1193 8.93096 44.5823 8.49541 44.263 8.27997C43.9439 8.06453 43.3876 7.74986 43.027 7.58066C42.6663 7.41146 42.0019 7.17429 41.5508 7.05358L40.7304 6.83424L39.4937 6.82715C38.6261 6.82221 38.0279 6.86619 37.4894 6.97452C37.0672 7.05947 36.2996 7.26729 35.7836 7.43631C35.2676 7.60534 34.5576 7.9091 34.2057 8.1112C33.8539 8.31339 33.1823 8.67388 32.7132 8.91226C32.2441 9.15065 31.4783 9.51061 31.0113 9.7121C30.5444 9.9136 29.7765 10.2068 29.3048 10.3636C28.8332 10.5205 28.0447 10.7403 27.5525 10.8521L26.6576 11.0554L25.1651 11.0528L23.6725 11.0503L22.9475 10.8522C22.5488 10.7433 21.8964 10.514 21.4976 10.3426C21.0989 10.1711 20.5616 9.9136 20.3036 9.77029C20.0456 9.62707 19.3164 9.19844 18.6831 8.81779C18.0498 8.43722 17.1863 7.95993 16.7641 7.75713C16.3419 7.55442 15.7603 7.30842 15.4717 7.21066C15.1831 7.11281 14.6119 6.97348 14.2025 6.901C13.7931 6.82853 13.1081 6.77398 12.6803 6.77978C12.2526 6.78558 11.6755 6.82394 11.3979 6.86507ZM111.691 8.33348C110.987 8.42025 110.383 8.4935 110.348 8.49619C110.313 8.49887 110.284 9.06605 110.284 9.75661V11.0122H109.388H108.493V12.2678V13.5233H109.388H110.284L110.287 15.7098C110.289 17.1487 110.329 18.1197 110.405 18.5499C110.468 18.9096 110.621 19.4078 110.746 19.6571C110.87 19.9065 111.103 20.2576 111.263 20.4374C111.423 20.6172 111.766 20.8699 112.026 20.999C112.3 21.1349 112.783 21.2746 113.175 21.3309L113.852 21.4281L114.591 21.3313C114.997 21.278 115.538 21.1679 115.792 21.0865C116.046 21.0051 116.254 20.9065 116.254 20.8673C116.254 20.8282 116.118 20.2995 115.952 19.6925C115.786 19.0855 115.635 18.5451 115.618 18.4916L115.585 18.3943L115.134 18.5132C114.885 18.5787 114.546 18.6316 114.38 18.6309C114.215 18.6302 113.984 18.5809 113.868 18.5214C113.753 18.4619 113.57 18.2813 113.463 18.1203L113.269 17.8272V15.6753V13.5233H114.548H115.828V12.2678V11.0122H114.548H113.269V9.58343V8.15467L113.12 8.16515C113.038 8.17095 112.395 8.24672 111.691 8.33348ZM80.1681 10.7574C79.8115 10.7897 79.2161 10.9188 78.845 11.0443C78.4738 11.1699 77.9317 11.4307 77.6402 11.624C77.3488 11.8173 76.9153 12.1971 76.6768 12.468C76.4383 12.7389 76.1107 13.2332 75.9487 13.5666C75.7867 13.9 75.5977 14.4455 75.5287 14.7789C75.4598 15.1123 75.4035 15.6968 75.4035 16.0778C75.4035 16.4588 75.4583 17.0334 75.5253 17.3546C75.5924 17.6759 75.763 18.1824 75.9044 18.4803C76.0459 18.7782 76.3321 19.2404 76.5404 19.5076C76.75 19.7762 77.1804 20.1685 77.5033 20.3852C77.8244 20.6006 78.3643 20.8776 78.703 21.0006C79.0418 21.1238 79.6559 21.2673 80.0677 21.3196C80.4794 21.372 81.085 21.39 81.4134 21.3597C81.7417 21.3293 82.2965 21.2273 82.6462 21.1328C82.9959 21.0382 83.5409 20.8229 83.8573 20.654C84.1737 20.4853 84.6645 20.1138 84.9481 19.8286C85.3057 19.4689 85.5687 19.0936 85.8069 18.6031C85.9957 18.2143 86.2108 17.6039 86.2849 17.2467C86.3785 16.796 86.4064 16.3456 86.3762 15.7747C86.3479 15.2423 86.2576 14.7143 86.12 14.2781C86.003 13.9074 85.7442 13.3498 85.5448 13.0391C85.3454 12.7283 84.9866 12.2994 84.7477 12.0857C84.5087 11.8722 84.0172 11.5463 83.6554 11.3614C83.2936 11.1766 82.7179 10.9665 82.376 10.8943C82.0342 10.8222 81.5434 10.7487 81.2854 10.7309C81.0274 10.7132 80.5247 10.725 80.1681 10.7574ZM101.681 10.7993C101.382 10.8651 100.902 11.0324 100.615 11.1712C100.327 11.3101 99.9302 11.5665 99.7328 11.7411C99.5201 11.9293 99.2595 12.2944 99.0931 12.6376L98.8124 13.2166L98.8154 13.9545L98.8184 14.6923L98.995 15.0864C99.0921 15.3031 99.2982 15.6269 99.453 15.8058C99.6077 15.9848 99.8915 16.2407 100.084 16.3745C100.276 16.5084 100.715 16.721 101.06 16.847C101.407 16.974 102.054 17.1174 102.51 17.1684C102.962 17.219 103.493 17.2789 103.689 17.3013C103.885 17.3237 104.173 17.429 104.329 17.5353L104.612 17.7285L104.638 18.039L104.664 18.3494L104.401 18.5739C104.256 18.6974 104 18.8247 103.832 18.8567C103.664 18.8887 103.195 18.8945 102.79 18.8695C102.359 18.843 101.806 18.7405 101.456 18.6224C101.128 18.5115 100.612 18.2527 100.311 18.0474L99.7622 17.674L99.6567 17.7851C99.5986 17.8462 99.2986 18.3248 98.9902 18.8486L98.4293 19.801L98.6208 19.9542C98.7262 20.0384 99.0928 20.2874 99.4355 20.5075C99.7782 20.7275 100.377 21.0188 100.765 21.1549C101.188 21.3027 101.816 21.4381 102.328 21.4914C102.909 21.5519 103.428 21.5524 103.945 21.4928C104.364 21.4446 104.932 21.3266 105.207 21.2306C105.482 21.1346 105.891 20.9359 106.117 20.7891C106.342 20.6423 106.643 20.3877 106.785 20.2235C106.927 20.0591 107.149 19.7215 107.278 19.4733L107.512 19.0219V18.0694V17.1169L107.272 16.6212C107.14 16.3487 106.875 15.9884 106.682 15.8207C106.489 15.6529 106.174 15.4393 105.983 15.3459C105.792 15.2525 105.405 15.1148 105.124 15.0401C104.842 14.9653 104.136 14.8667 103.555 14.8209C102.863 14.7664 102.391 14.6849 102.19 14.5851C102.014 14.4972 101.851 14.3367 101.807 14.2065C101.765 14.0823 101.756 13.8782 101.787 13.7531C101.824 13.6016 101.962 13.4636 102.2 13.3406L102.556 13.1558L103.43 13.1952L104.303 13.2346L104.884 13.5304C105.204 13.6931 105.491 13.8263 105.522 13.8263C105.553 13.8264 105.889 13.4284 106.268 12.942C106.647 12.4557 106.957 12.027 106.957 11.9895C106.957 11.952 106.775 11.7963 106.552 11.6433C106.33 11.4904 105.93 11.265 105.664 11.1424C105.398 11.0199 104.919 10.8632 104.598 10.7942C104.277 10.7252 103.612 10.6713 103.119 10.6742C102.627 10.6772 101.98 10.7334 101.681 10.7993ZM127.283 10.7567C126.946 10.7916 126.409 10.9051 126.089 11.0086C125.77 11.1123 125.255 11.3482 124.946 11.5329C124.637 11.7177 124.151 12.1229 123.865 12.4331C123.573 12.7501 123.231 13.2393 123.085 13.5494C122.943 13.8531 122.768 14.3513 122.697 14.6566C122.625 14.9672 122.568 15.6125 122.568 16.1211C122.568 16.6211 122.625 17.2742 122.694 17.5723C122.763 17.8705 122.932 18.3401 123.069 18.6159C123.206 18.8918 123.472 19.315 123.66 19.5564C123.848 19.7978 124.265 20.1732 124.588 20.3906C124.91 20.608 125.46 20.8837 125.811 21.0033C126.162 21.1229 126.806 21.2673 127.243 21.3241L128.037 21.4275L128.764 21.3243C129.163 21.2676 129.731 21.1324 130.025 21.0239C130.32 20.9154 130.728 20.7261 130.934 20.6032C131.139 20.4802 131.461 20.2423 131.649 20.0743L131.99 19.7689L131.039 18.7986L130.088 17.8284L129.827 18.0173C129.683 18.1212 129.347 18.2826 129.08 18.376C128.798 18.4743 128.368 18.5456 128.056 18.5456C127.729 18.5456 127.342 18.4784 127.067 18.374C126.818 18.2795 126.468 18.0579 126.29 17.8815C126.111 17.7051 125.881 17.4024 125.779 17.2089L125.594 16.8571L125.593 16.0345L125.593 15.2119L125.847 14.7461C125.987 14.4899 126.265 14.1533 126.465 13.998C126.67 13.8392 127.071 13.6494 127.383 13.5639L127.936 13.4118L128.463 13.4677C128.758 13.499 129.2 13.6262 129.467 13.7565C129.729 13.8846 129.969 13.9917 130.002 13.9945C130.034 13.9972 130.408 13.6017 130.833 13.1153C131.258 12.6289 131.606 12.1979 131.606 12.1573C131.606 12.1168 131.501 11.9816 131.372 11.8568C131.243 11.732 130.912 11.4925 130.636 11.3246C130.334 11.1402 129.894 10.9686 129.527 10.8914C129.193 10.821 128.689 10.7476 128.408 10.7282C128.126 10.7089 127.62 10.7217 127.283 10.7567ZM86.7717 11.2052C86.8359 11.361 87.7808 13.5844 88.8713 16.1461L90.8542 20.8038L89.8566 23.16C89.3079 24.4559 88.8392 25.5657 88.8151 25.6263L88.7712 25.7365L90.405 25.7129L92.0388 25.6894L95.1057 18.3367C96.7926 14.2927 98.1727 10.9709 98.1727 10.9548C98.1727 10.9387 97.4339 10.926 96.5309 10.9265L94.8891 10.9274L93.6975 14.0544L92.5059 17.1815L92.4237 17.0491C92.3785 16.9763 91.8199 15.5786 91.1824 13.9429L90.0233 10.9689L88.3391 10.9454L86.6548 10.922L86.7717 11.2052ZM117.725 16.0561L117.747 21.1866H119.197H120.646L120.668 16.0561L120.69 10.9256H119.197H117.703L117.725 16.0561ZM80.1225 13.5259C79.9754 13.572 79.6687 13.7364 79.4409 13.8913L79.0266 14.1728L78.7363 14.7526L78.4459 15.3323L78.4388 15.9648C78.4342 16.3727 78.4879 16.763 78.5899 17.0637C78.6769 17.3202 78.8873 17.6868 79.0573 17.8783C79.2273 18.0697 79.5583 18.3174 79.7929 18.4285L80.2193 18.6305L80.9016 18.6294L81.5839 18.6284L81.9677 18.4523C82.1788 18.3555 82.4957 18.134 82.6719 17.9599C82.8553 17.7788 83.067 17.4406 83.1671 17.1692C83.2832 16.8541 83.3418 16.4879 83.3418 16.0778C83.3418 15.6687 83.2832 15.3015 83.168 14.9889C83.0724 14.7295 82.852 14.3686 82.6783 14.187C82.5045 14.0053 82.2064 13.7752 82.0158 13.6756C81.7769 13.5509 81.4706 13.4865 81.0296 13.4684C80.6777 13.454 80.2695 13.4799 80.1225 13.5259ZM112.97 26.8294C112.83 26.9049 112.642 27.0299 112.553 27.1073C112.465 27.1847 112.321 27.4039 112.235 27.5944C112.149 27.7849 112.079 28.1161 112.079 28.3304C112.079 28.5447 112.149 28.8776 112.235 29.07C112.321 29.2625 112.514 29.524 112.662 29.6512C112.811 29.7784 113.076 29.9227 113.25 29.9718C113.425 30.021 113.659 30.0615 113.771 30.0617C113.883 30.062 114.131 30.0144 114.323 29.9561C114.515 29.8977 114.812 29.708 114.983 29.5345C115.197 29.3169 115.326 29.0825 115.398 28.7785C115.455 28.5362 115.475 28.2097 115.443 28.0528C115.411 27.8959 115.293 27.6057 115.181 27.4079C115.045 27.1678 114.854 26.9878 114.608 26.8667C114.356 26.7428 114.078 26.6863 113.732 26.6886C113.441 26.6906 113.118 26.7504 112.97 26.8294ZM60.9013 34.0021V41.2325H62.5218H64.1423V38.8512V36.47H65.2439H66.3456L68.165 38.8474L69.9846 41.2249L71.7543 41.2287L73.5241 41.2325V41.0634C73.5241 40.9703 72.6797 39.8598 71.6477 38.5954C70.6157 37.331 69.7727 36.2674 69.7743 36.2317C69.7759 36.1961 70.0782 36.0191 70.446 35.8386C70.8166 35.6566 71.341 35.3025 71.6216 35.0446C71.9237 34.767 72.2396 34.3672 72.4038 34.0542C72.5554 33.7655 72.7345 33.2655 72.8018 32.9431C72.8691 32.6207 72.9242 32.0647 72.9243 31.7075C72.9244 31.3503 72.8667 30.8087 72.796 30.5041C72.7252 30.1995 72.5243 29.6734 72.3494 29.3352C72.1631 28.9747 71.8259 28.5146 71.5346 28.2232C71.203 27.8915 70.8057 27.6114 70.3405 27.3816C69.9571 27.1921 69.3476 26.9774 68.986 26.9044L68.3286 26.7718H64.615H60.9013V34.0021ZM64.1423 31.6599V33.6991L66.1679 33.6972L68.1935 33.6953L68.5773 33.5186C68.7884 33.4215 69.0512 33.2567 69.1613 33.1525C69.2714 33.0483 69.441 32.8072 69.5383 32.6167C69.6606 32.3771 69.7155 32.1051 69.7165 31.734L69.7181 31.1978L69.4662 30.6978L69.2143 30.1979L68.7962 29.9352L68.378 29.6726L66.2602 29.6467L64.1423 29.6208V31.6599ZM78.0444 30.89C77.7395 30.9568 77.2022 31.1548 76.8504 31.3302L76.2107 31.649L75.6105 32.2627C75.215 32.6672 74.9179 33.07 74.7393 33.4439C74.5901 33.756 74.4098 34.2625 74.3385 34.5696C74.266 34.8818 74.2084 35.5318 74.2077 36.0448C74.2068 36.6782 74.2585 37.1687 74.3749 37.6307C74.4676 37.9985 74.6682 38.5405 74.8208 38.8351C74.9733 39.1297 75.3292 39.6059 75.6118 39.8932C75.9174 40.204 76.3716 40.5456 76.7332 40.7365C77.0674 40.9131 77.6815 41.1399 78.0978 41.2408L78.8547 41.4242L80.0914 41.3869L81.3281 41.3495L82.181 41.0502C82.6501 40.8856 83.2581 40.5999 83.5321 40.4152C83.8062 40.2305 84.0502 40.027 84.0744 39.963C84.0995 39.8966 83.7764 39.465 83.3231 38.9593C82.8856 38.4712 82.5259 38.0648 82.5236 38.0561C82.5212 38.0473 82.2512 38.1741 81.9236 38.3377C81.5961 38.5014 81.1213 38.6742 80.8687 38.7216C80.616 38.7691 80.1493 38.8079 79.8315 38.8079C79.5029 38.8079 79.0286 38.7368 78.7317 38.643C78.4447 38.5523 78.0803 38.3778 77.922 38.2552C77.7637 38.1326 77.5581 37.9049 77.4652 37.749C77.3723 37.5932 77.2701 37.3781 77.2382 37.2709L77.18 37.0761H80.8441H84.5082L84.5599 36.9391C84.5884 36.8638 84.6117 36.346 84.6117 35.7883C84.6117 35.1646 84.5618 34.576 84.4819 34.2584C84.4105 33.9746 84.2331 33.494 84.0876 33.1905C83.9313 32.8642 83.6218 32.4343 83.3311 32.1391C83.0176 31.8209 82.6113 31.5258 82.2115 31.326C81.8663 31.1536 81.3153 30.9552 80.9869 30.8852C80.6585 30.8152 79.9869 30.7604 79.4944 30.7634C79.0018 30.7663 78.3493 30.8233 78.0444 30.89ZM102.97 30.851C102.724 30.8926 102.308 31.0032 102.046 31.0966C101.784 31.19 101.392 31.3727 101.173 31.5025C100.955 31.6324 100.588 31.9168 100.357 32.1344C100.126 32.3521 99.7889 32.7608 99.6082 33.0429C99.4275 33.3248 99.1788 33.8703 99.0555 34.2551L98.8314 34.9546L98.8246 36.037L98.8177 37.1194L98.9657 37.6823C99.0472 37.9918 99.2346 38.4984 99.3824 38.8079C99.5606 39.1811 99.8547 39.5777 100.255 39.9849C100.669 40.4052 101.037 40.6846 101.421 40.8702C101.73 41.0194 102.229 41.2003 102.53 41.2722C102.831 41.3442 103.425 41.4037 103.85 41.4044C104.312 41.4052 104.811 41.3499 105.087 41.2676C105.342 41.1915 105.772 41.01 106.044 40.8642C106.315 40.7183 106.648 40.4704 106.784 40.3132L107.031 40.0274L107.086 40.5217C107.116 40.7936 107.156 41.0648 107.174 41.1243L107.208 41.2325H108.533H109.857V36.1236V31.0147H108.45H107.043V31.491C107.043 31.7529 107.019 31.9672 106.989 31.9672C106.96 31.9672 106.789 31.8325 106.609 31.6679C106.43 31.5033 106.124 31.2861 105.929 31.1852C105.734 31.0844 105.32 30.9469 105.008 30.8799C104.696 30.8128 104.211 30.7619 103.93 30.7666C103.648 30.7713 103.216 30.8093 102.97 30.851ZM122.438 30.871C122.203 30.933 121.877 31.0533 121.713 31.1384C121.548 31.2235 121.237 31.467 121.021 31.6796L120.628 32.066L120.527 31.5404L120.425 31.0147H119.021H117.617L117.639 36.102L117.661 41.1892L119.127 41.2128L120.592 41.2366L120.62 38.2687L120.648 35.301L120.801 34.9546C120.885 34.7641 121.076 34.4782 121.226 34.3192C121.377 34.1603 121.653 33.9463 121.84 33.8437L122.182 33.657L122.949 33.6564L123.717 33.6558L124.121 33.8875L124.526 34.1191L124.813 33.5844C124.971 33.2903 125.258 32.7505 125.452 32.385L125.804 31.7205L125.447 31.4538C125.25 31.3072 124.88 31.1078 124.625 31.0107C124.369 30.9136 123.868 30.817 123.512 30.7962C123.13 30.7738 122.689 30.8045 122.438 30.871ZM91.1746 30.9997C90.8673 31.0811 90.425 31.2721 90.1918 31.4241C89.9586 31.576 89.6534 31.8216 89.5138 31.9698L89.26 32.2391L89.1747 31.6486L89.0894 31.058L87.7456 31.0342L86.4018 31.0103L86.4236 38.3512L86.4454 45.6919L87.9167 45.7157L89.3879 45.7393V42.9157V40.0921L89.7634 40.4276C89.9698 40.6121 90.3484 40.8673 90.6047 40.9947C90.8609 41.1221 91.2389 41.2657 91.4447 41.3139C91.6504 41.362 92.1641 41.4018 92.5863 41.4023C93.0084 41.4027 93.5994 41.3444 93.8995 41.2726C94.1995 41.2007 94.7038 41.0039 95.0202 40.8351C95.3365 40.6664 95.7699 40.3583 95.9834 40.1507C96.1969 39.9431 96.5103 39.561 96.6799 39.3018C96.8494 39.0425 97.0864 38.5429 97.2065 38.1914L97.4248 37.5524L97.4686 36.4592L97.5122 35.3659L97.3675 34.7054C97.2879 34.3421 97.0847 33.7624 96.9159 33.4173C96.708 32.9922 96.4279 32.6083 96.0476 32.227C95.6927 31.8714 95.2753 31.5591 94.9135 31.3788C94.5987 31.2219 94.0805 31.0376 93.7621 30.9691C93.4438 30.9006 92.857 30.8461 92.4583 30.848C92.0596 30.8499 91.4819 30.9182 91.1746 30.9997ZM112.245 36.1236V41.2325H113.738H115.231V36.1236V31.0147H113.738H112.245V36.1236ZM78.6314 33.4723C78.4617 33.5338 78.1886 33.6684 78.0245 33.7715C77.8603 33.8744 77.6319 34.1048 77.5168 34.2835C77.4017 34.4621 77.2826 34.6764 77.2522 34.7598L77.1969 34.9113H79.5454H81.894L81.8348 34.7165C81.8022 34.6094 81.7229 34.4166 81.6585 34.2881C81.5942 34.1596 81.4167 33.9589 81.2642 33.8424C81.1117 33.7257 80.8033 33.5678 80.5788 33.4915C80.348 33.413 79.9034 33.3543 79.5553 33.3565C79.2169 33.3586 78.8011 33.4107 78.6314 33.4723ZM103.603 33.558C103.377 33.6227 103.031 33.7894 102.836 33.9283C102.64 34.0672 102.358 34.365 102.209 34.5903C102.059 34.8154 101.892 35.2187 101.838 35.4866C101.779 35.773 101.763 36.1728 101.798 36.4576C101.83 36.7238 101.937 37.1139 102.034 37.3245C102.132 37.5351 102.345 37.8431 102.509 38.0089C102.672 38.1747 102.982 38.393 103.197 38.4938L103.589 38.6772L104.356 38.6776L105.124 38.6781L105.516 38.4818C105.732 38.3739 106.052 38.1401 106.228 37.9622C106.404 37.7844 106.63 37.4831 106.731 37.2926L106.914 36.9462L106.914 36.1669L106.914 35.3876L106.732 34.9874C106.632 34.7672 106.411 34.4309 106.241 34.24C106.072 34.0491 105.74 33.8088 105.504 33.7059C105.269 33.603 104.837 33.5012 104.546 33.4795C104.235 33.4566 103.844 33.4891 103.603 33.558ZM91.4973 33.6121C91.2736 33.6523 90.9187 33.7696 90.7085 33.8729C90.4985 33.9762 90.1912 34.2211 90.0259 34.4172C89.8605 34.6134 89.6685 34.9677 89.5992 35.2047C89.5299 35.4416 89.4732 35.8553 89.4732 36.1239C89.4732 36.3926 89.5375 36.804 89.6161 37.0383C89.7101 37.3181 89.9086 37.6161 90.1946 37.9064C90.4968 38.2132 90.7728 38.3984 91.0964 38.5115C91.3824 38.6114 91.7937 38.6738 92.1598 38.6729L92.7568 38.6713L93.161 38.4726C93.3833 38.3633 93.7193 38.0961 93.9076 37.8788C94.1069 37.6491 94.3036 37.3013 94.3778 37.0477C94.4479 36.8079 94.5053 36.392 94.5053 36.1236C94.5053 35.8552 94.4479 35.4393 94.3778 35.1995C94.3039 34.947 94.1071 34.5985 93.9104 34.3715C93.7235 34.1559 93.4056 33.9008 93.2041 33.8047C93.0025 33.7085 92.6275 33.6094 92.3707 33.5844C92.114 33.5595 91.7209 33.5719 91.4973 33.6121Z" fill="#02A09B"/>
</g>
<defs>
<clipPath id="clip0_1422_3927">
<rect width="143" height="51" fill="white"/>
</clipPath>
</defs>
</svg>
