<svg width="23" height="23" viewBox="0 0 23 23" fill="none" xmlns="http://www.w3.org/2000/svg">
<rect x="0.5" y="0.5" width="22" height="22" rx="11" fill="white"/>
<rect x="0.5" y="0.5" width="22" height="22" rx="11" stroke="#E6E6E6"/>
<path d="M5.95588 12.2715L5.9559 12.2716L14.0335 16.491C14.0335 16.491 14.0335 16.491 14.0335 16.491C14.3593 16.6612 14.7329 16.6447 15.0238 16.5003C15.3144 16.3562 15.4728 16.1156 15.4728 15.8571V7.14304C15.4728 6.88026 15.3097 6.63687 15.012 6.49397C14.714 6.35092 14.3348 6.34111 14.0107 6.52141L5.95588 12.2715ZM5.95588 12.2715C5.65076 12.1122 5.52898 11.8652 5.52547 11.6473C5.52197 11.4297 5.63522 11.1817 5.93304 11.016C5.93304 11.016 5.93304 11.016 5.93305 11.016L14.0107 6.52143L5.95588 12.2715Z" stroke="#02A09B"/>
</svg>
