<svg width="36" height="28" viewBox="0 0 36 28" fill="none" xmlns="http://www.w3.org/2000/svg">
<path d="M24.3155 18.6666H13.3453C12.0445 18.6666 10.8918 17.7951 10.5442 16.548L6.83533 3.60263C6.62533 2.85363 5.93583 2.33329 5.15533 2.33329H2.25033C1.92833 2.33329 1.66699 2.07196 1.66699 1.74996C1.66699 1.42796 1.92833 1.16663 2.25033 1.16663H5.15533C6.45616 1.16663 7.60883 2.03813 7.95649 3.28529L8.68799 5.83329H27.9158C28.4747 5.83329 28.9868 6.08996 29.3193 6.53796C29.653 6.98596 29.7522 7.55063 29.5912 8.08496L27.0817 16.66C26.678 17.8686 25.5685 18.6666 24.3155 18.6666ZM9.02166 6.99996L11.6665 16.2306C11.8753 16.9796 12.5648 17.5 13.3453 17.5H24.3155C25.0552 17.5 25.7342 17.0111 25.9675 16.3123L28.4747 7.75129C28.5283 7.57279 28.4945 7.38496 28.3837 7.23563C28.2728 7.08513 28.1025 6.99996 27.9158 6.99996H9.02166Z" fill="black" stroke="black" stroke-width="0.8"/>
<path d="M14.5003 24.5C13.2135 24.5 12.167 23.4535 12.167 22.1667C12.167 20.8799 13.2135 19.8334 14.5003 19.8334C15.7872 19.8334 16.8337 20.8799 16.8337 22.1667C16.8337 23.4535 15.7872 24.5 14.5003 24.5ZM14.5003 21C13.8563 21 13.3337 21.5239 13.3337 22.1667C13.3337 22.8095 13.8563 23.3334 14.5003 23.3334C15.1443 23.3334 15.667 22.8095 15.667 22.1667C15.667 21.5239 15.1443 21 14.5003 21Z" fill="black" stroke="black" stroke-width="0.8"/>
<path d="M22.6673 24.5C21.3805 24.5 20.334 23.4535 20.334 22.1667C20.334 20.8799 21.3805 19.8334 22.6673 19.8334C23.9542 19.8334 25.0007 20.8799 25.0007 22.1667C25.0007 23.4535 23.9542 24.5 22.6673 24.5ZM22.6673 21C22.0233 21 21.5007 21.5239 21.5007 22.1667C21.5007 22.8095 22.0233 23.3334 22.6673 23.3334C23.3113 23.3334 23.834 22.8095 23.834 22.1667C23.834 21.5239 23.3113 21 22.6673 21Z" fill="black" stroke="black" stroke-width="0.8"/>
</svg>
