<svg width="68" height="52" viewBox="0 0 68 52" fill="none" xmlns="http://www.w3.org/2000/svg">
<path d="M3.09453 45.032H20.918V17.5398H8.95156C7.11875 17.5398 5.44531 18.589 4.62187 20.2359L1.08906 27.3945C0.757032 28.0585 0.597656 28.789 0.597656 29.5195V42.5484C0.610937 43.9164 1.71328 45.032 3.09453 45.032Z" fill="#FF5741"/>
<path d="M17.0928 31.3258V22.4672C17.0928 21.8562 16.6014 21.3516 15.9771 21.3516H8.95136C8.56621 21.3516 8.23418 21.5641 8.06152 21.9094L4.6748 28.7758C4.51543 29.1078 4.42246 29.4797 4.42246 29.8383V31.5516C4.42246 32.043 4.8209 32.4414 5.3123 32.4414H15.9639C16.5881 32.4414 17.0928 31.9367 17.0928 31.3258Z" fill="#DEF6FC"/>
<path d="M15.9771 21.3647C16.5881 21.3647 17.0928 21.8562 17.0928 22.4804V31.339C17.0928 31.9499 16.6014 32.4546 15.9771 32.4546H13.7326V21.378H15.9771V21.3647Z" fill="white"/>
<path d="M67.3887 38.2719V43.1328C67.3887 44.182 66.5387 45.0187 65.5027 45.0187H20.9176V38.2719H67.3887Z" fill="#7180BC"/>
<path d="M67.3887 38.2719V43.1328C67.3887 44.182 66.5387 45.0187 65.5027 45.0187H64.0551V38.2719H67.3887Z" fill="#93A3D8"/>
<path d="M20.9176 38.2719H67.3887V3.18279C67.3887 1.54919 66.0605 0.221069 64.427 0.221069H23.866C22.2324 0.221069 20.9043 1.54919 20.9043 3.18279V38.2719H20.9176Z" fill="#FFB948"/>
<path d="M61.0805 0.221069H64.4406C66.0742 0.221069 67.4023 1.54919 67.4023 3.18279V38.2719H64.0555V3.18279C64.0422 1.54919 62.7141 0.221069 61.0805 0.221069Z" fill="#F8AA2C"/>
<path d="M57.3088 51.7789C53.5826 51.7789 50.5619 48.7582 50.5619 45.032C50.5619 41.3058 53.5826 38.2852 57.3088 38.2852C61.035 38.2852 64.0557 41.3058 64.0557 45.032C64.0557 48.7582 61.035 51.7789 57.3088 51.7789Z" fill="#43527A"/>
<path d="M57.3092 47.8078C55.7762 47.8078 54.5334 46.565 54.5334 45.032C54.5334 43.499 55.7762 42.2562 57.3092 42.2562C58.8422 42.2562 60.085 43.499 60.085 45.032C60.085 46.565 58.8422 47.8078 57.3092 47.8078Z" fill="#7782BB"/>
<path d="M11.7541 51.7789C8.02791 51.7789 5.00723 48.7582 5.00723 45.032C5.00723 41.3058 8.02791 38.2852 11.7541 38.2852C15.4803 38.2852 18.501 41.3058 18.501 45.032C18.501 48.7582 15.4803 51.7789 11.7541 51.7789Z" fill="#43527A"/>
<path d="M11.7545 47.8078C10.2215 47.8078 8.97871 46.565 8.97871 45.032C8.97871 43.499 10.2215 42.2562 11.7545 42.2562C13.2875 42.2562 14.5303 43.499 14.5303 45.032C14.5303 46.565 13.2875 47.8078 11.7545 47.8078Z" fill="#7782BB"/>
</svg>
